<svg width="1619" height="965" viewBox="0 0 1619 965" fill="none" xmlns="http://www.w3.org/2000/svg">
<path d="M318.955 568.424C301.334 566.649 265.354 572.766 262.403 611.433C261.191 627.315 265.466 638.509 272.479 646.25M318.955 568.424C300.924 576.289 295.324 597.37 294.777 606.928H298.056C313.792 575.47 336.304 577.709 345.592 582.761M318.955 568.424C326.195 567.059 341.658 565.885 345.592 572.111V582.761M326.332 660.996C319.775 658.129 305.268 648.954 299.695 635.191L303.793 631.504C309.665 644.066 328.378 665.83 349.69 647.479L350.51 653.623L341.085 660.996M326.332 660.996C312.574 663.471 286.809 662.069 272.479 646.25M326.332 660.996H341.085M272.479 646.25C269.144 649.391 264.475 656.736 272.479 660.996M272.479 660.996C282.483 666.321 326.332 675.742 341.085 660.996M272.479 660.996C269.554 665.911 265.458 676.152 272.479 677.79C281.254 679.838 325.102 683.934 341.085 672.465M341.085 660.996C344.522 660.996 348.846 661.951 348.048 665.092M341.085 672.465L352.559 695.813M341.085 672.465C345.622 669.209 347.61 666.82 348.048 665.092M352.559 695.813L361.575 692.536L370.219 711.052M352.559 695.813L347.232 699.499L361.575 722.028L367.312 719.57M367.312 719.57L373.049 717.113L370.219 711.052M367.312 719.57V729.811M367.312 729.811L381.655 731.039L391.49 723.666C399.358 720.062 399.413 724.622 398.457 727.353L389.441 737.593H395.998M367.312 729.811L364.033 729.365M248.88 711.052L240.684 713.836L236.176 692.536L250.724 686.392M248.88 711.052L275.926 701.866M248.88 711.052L257.954 731.039M299.695 752.749L318.955 797.806L315.677 799.75M275.926 701.866L282.893 699.499L265.272 680.248L250.724 686.392M275.926 701.866L288.22 722.028M355.837 756.435L373.049 759.712M355.837 756.435C353.215 746.932 360.209 734.429 364.033 729.365M355.837 756.435C353.615 756.413 350.965 756.369 348.048 756.3M348.048 665.092L370.59 670.827L384.217 646.25M407.472 651.165L415.258 640.516L419.69 631.504M407.472 651.165L405.724 656.081M407.472 651.165C402.316 650.073 390.969 646.619 386.829 641.54M370.219 711.052C380.086 714.068 387.145 706.184 389.441 701.866L405.724 656.081M315.677 799.75L294.777 812.142L286.594 794.119M315.677 799.75C317.863 805.792 324.119 818.041 331.659 818.696C333.237 818.833 336.578 817.848 341.085 816.09M483.695 818.696L467.303 808.456M483.695 818.696C489.569 809.824 502.873 790.81 509.102 785.727M483.695 818.696L488.203 822.095M511.151 787.156L524.265 779.373C535.739 772.492 549.536 788.794 555 797.806L507.053 836.309L488.203 822.095M511.151 787.156L509.102 785.727M511.151 787.156L488.203 822.095M395.998 737.593H402.555C409.111 736.938 410.751 740.051 410.751 741.689C411.024 744.42 411.242 750.865 409.931 754.797C408.62 758.729 406.106 760.258 405.013 760.531L381.655 761.351L373.049 759.712M395.998 737.593L402.555 729.811C417.307 720.308 434.109 731.312 440.666 738.003L509.102 785.727M329.2 781.831C330.858 778.281 334.382 774.981 338.626 772.084M373.049 759.712L361.575 761.351C359.949 761.851 357.986 762.525 355.837 763.353M355.837 809.63C373.434 801.378 396.156 789.371 409.931 781.831C423.864 779.373 422.717 772.164 444.354 794.119L467.303 808.456M355.837 809.63L409.931 828.117C414.166 827.98 422.143 832.377 420.176 851.055L418.149 901.028M355.837 809.63C353.705 810.631 351.647 811.576 349.69 812.451M417.717 911.677L412.39 930.11L473.45 951C479.05 940.76 485.662 918.149 467.303 909.629L459.517 905.943M417.717 911.677C430.011 909.766 455.583 905.943 459.517 905.943M417.717 911.677L418.149 901.028M459.517 905.943L459.909 901.028M467.303 808.456L459.909 901.028M345.592 582.761C354.645 582.761 361.984 597.432 361.984 615.529C361.984 633.627 354.645 649.117 345.592 649.117M384.217 646.25C389.711 651.165 401.703 660.013 405.724 656.081M384.217 646.25L386.829 641.54M386.829 641.54L389.441 636.829L384.114 613.072C384.25 608.02 385.917 600.62 391.49 611.433L393.539 620.445L399.276 613.686M364.033 729.365L355.837 728.252M348.048 756.3C333.215 755.948 311.464 754.939 303.793 752.749C294.613 750.127 289.586 741.826 288.22 738.003L294.777 695.813C315.431 674.841 324.419 687.075 326.332 695.813C326.878 701.957 321.004 714.082 321.004 718.342C321.004 722.601 323.736 723.939 325.102 724.076L355.837 728.252M348.048 756.3C348.732 747.796 351.248 730.281 355.837 728.252M257.954 731.039L248.88 737.593L275.926 799.75L286.594 794.119M257.954 731.039L286.594 794.119M355.837 763.353C346.002 771.766 331.004 793.365 349.69 812.451M355.837 763.353C350.489 765.413 343.983 768.427 338.626 772.084M349.69 812.451C346.524 813.868 343.62 815.101 341.085 816.09M341.085 816.09C335.621 808.549 327.479 789.191 338.626 772.084M418.149 901.028C431.38 899.935 458.256 898.406 459.909 901.028M250.724 686.392C239.454 661.406 212.319 509.145 164.871 512.041C111.187 515.318 209.539 862.257 178.804 866.763C148.069 871.269 89.8775 741.689 62.0111 741.689C39.718 741.689 13.3816 741.689 3 741.689M419.69 631.504L439.5 644.5C440.028 644.81 442.068 644.448 446 640.516C449.932 636.583 448.638 632.87 447.5 631.504L425.128 620.445M419.69 631.504L425.128 620.445M425.128 620.445L427.143 616.349C430.093 613.072 428.372 608.703 427.143 606.928C425.64 604.88 421.487 600.046 416.898 597.097C413.623 594.993 410.015 598.601 407.472 602.478M407.472 602.478C406.45 604.035 405.601 605.636 405.013 606.928L399.276 613.686M407.472 602.478L395.5 594M395.5 594L401.5 586C400.833 584.167 399.9 580 401.5 578C403.1 576 407.833 577.167 410 578L419.69 568.424C418.443 564.45 413.903 555.9 405.724 553.5L398.5 560C400.154 561.167 402.469 564.2 398.5 567C394.531 569.8 392.173 567.5 391.49 566L370.59 591C367.916 594.285 370.253 609.471 379 615.529C379 615.529 375.5 610 379 604.5C382.5 599 386.829 604.5 386.829 604.5M395.5 594L386.829 604.5M386.829 604.5L399.276 613.686M309.12 621.264C309.12 629.182 302.882 635.6 295.187 635.6C287.492 635.6 281.254 629.182 281.254 621.264C281.254 613.346 287.492 606.928 295.187 606.928C302.882 606.928 309.12 613.346 309.12 621.264Z" stroke="white" stroke-width="5" stroke-linecap="round" stroke-linejoin="round"/>
<path d="M1192.13 668.403L1201.57 671.47M1287.87 726.403L1300.01 743.938L1309.44 761.473C1310.79 764.92 1312.14 772.533 1306.75 775.411C1301.35 778.288 1291.91 784.103 1287.87 786.651C1285.17 784.253 1279.69 778.019 1279.33 772.264L1269.44 761.473L1266.29 766.868M1287.87 726.403L1279.33 718.305M1287.87 726.403L1251.46 747.31M1244.72 740.341L1219.55 723.256M1244.72 740.341L1251.46 747.31M1244.72 740.341C1250.26 733.294 1264.94 719.021 1279.33 718.305M1219.55 723.256C1218.95 718.91 1219.46 709.048 1226.29 704.372M1219.55 723.256L1175.49 726.403M1266.29 766.868L1263.15 772.264C1259.55 774.362 1252.36 775.771 1252.36 764.62L1258.2 754.279L1251.46 747.31M1266.29 766.868C1271.33 773.825 1277.57 788.711 1270.84 801.938M1207.41 851.395C1211.81 848.581 1218.59 844.102 1226.29 838.808M1207.41 851.395C1199.47 847.199 1182.69 840.065 1179.09 845.101M1207.41 851.395L1210.4 899.953M1211.01 909.845L1219.55 933.674L1179.09 962C1171.9 956.155 1161.83 941.318 1179.09 928.729L1184.04 919.736M1211.01 909.845L1184.04 919.736M1211.01 909.845L1210.4 899.953M1184.04 919.736L1179.03 909.845M1192.13 786.651C1188.84 788.349 1180.68 793.38 1169.59 801.938M1192.13 786.651L1189.43 779.008C1199.92 769.191 1223.95 749.333 1236.18 748.434M1192.13 786.651H1196.62C1204.71 776.16 1225.12 755.808 1242.02 758.326M1226.29 838.808C1238.26 830.569 1252.42 820.358 1263.15 811.38C1266.66 808.435 1269.15 805.238 1270.84 801.938M1226.29 838.808L1236.18 883.318C1237.97 892.16 1244.9 909.845 1258.2 909.845C1267.47 909.845 1283.95 913.042 1297.31 916.097M1282.03 870.279L1273.93 879.271M1282.03 870.279L1270.84 801.938M1282.03 870.279L1309.44 887.337M1169.59 801.938C1166 804.712 1162.1 807.857 1157.96 811.38C1141.06 825.767 1145.23 844.052 1149.42 851.395L1179.03 909.845M1169.59 801.938L1149.42 782.605M1149.42 782.605L1139.09 786.651L1118.94 748.434M1149.42 782.605L1175.49 764.62L1151.95 737.194M1118.94 748.434L1151.95 737.194M1118.94 748.434L1115.98 742.814M1151.95 737.194L1142.68 726.403L1113.02 737.194L1115.98 742.814M1115.98 742.814L1091.44 748.434C1084.7 749.333 1069.41 748.974 1062.22 740.341L1035.59 721.275M1024.02 685.488C1023.95 684.642 1023.8 683.56 1023.54 682.341M1023.54 682.341C1026.09 683.99 1031.57 686.298 1033.01 682.341C1034.44 678.384 1033.6 673.199 1033.01 671.101M1023.54 682.341C1022.92 679.431 1021.68 675.738 1019.52 672.595M1019.52 672.595C1018.42 670.997 1017.09 669.542 1015.47 668.403L1007.38 659.411L993 690.434L1007.38 709.767C1009.93 713.364 1015.92 718.4 1019.52 709.767L1030.2 717.411M1019.52 672.595C1020.87 668.8 1024.82 661.389 1029.86 662.109C1034.89 662.828 1048.14 675.897 1054.13 682.341M1054.13 682.341C1054.13 698.527 1038.17 712.465 1030.2 717.411M1054.13 682.341L1064.24 691.109M1074.36 699.876L1077.51 717.411M1074.36 699.876L1091.44 698.527C1094.51 711.835 1117.24 727.802 1145.54 721.275C1173.84 714.748 1182.16 693.851 1179.09 680.543M1074.36 699.876L1064.24 691.109M1118.94 733.147L1113.02 720.109M1181.5 644.798L1193.92 629.961M1211.01 674.536L1244.72 685.488L1279.33 718.305M1211.01 674.536L1226.29 659.411L1239.32 644.798M1211.01 674.536L1201.57 671.47M1239.32 644.798L1252.36 630.186L1203.81 621.194L1193.92 629.961M1239.32 644.798L1297.31 704.372L1279.33 718.305M1184.04 656.264C1187.58 656.815 1196.49 659.384 1203.81 665.256L1201.57 671.47M1157.96 660.76C1167.15 660.76 1174.6 668.208 1174.6 677.395C1174.6 686.583 1167.15 694.031 1157.96 694.031C1148.78 694.031 1141.33 686.583 1141.33 677.395C1141.33 670.331 1145.74 664.294 1151.95 661.882M1157.96 660.76C1155.84 660.76 1153.81 661.157 1151.95 661.882M1157.96 660.76C1160.12 644.933 1148.23 631.835 1141.33 627.488C1131.35 621.194 1105.37 606.806 1099.08 609.054C1094.05 610.853 1093.09 613.7 1093.24 614.899L1098.18 617.191M1098.18 617.191C1085.09 626.78 1076.61 642.121 1076.61 659.411C1076.61 688.464 1100.55 712.016 1130.1 712.016C1159.64 712.016 1183.59 688.464 1183.59 659.411C1183.59 630.358 1159.64 606.806 1130.1 606.806C1122.59 606.806 1115.45 608.326 1108.97 611.068M1098.18 617.191C1114.1 622.571 1147.13 639.041 1151.95 661.882M1306.75 918.352C1308.76 918.853 1310.57 919.321 1312.14 919.736L1306.75 933.674C1302.85 939.519 1300.72 951.569 1323.38 953.008L1345.85 909.845L1318.88 893.209L1316.19 891.531M1306.75 918.352C1307.5 908.853 1310.43 890.189 1316.19 891.531M1306.75 918.352C1303.92 917.647 1300.72 916.876 1297.31 916.097M1316.19 891.531L1309.44 887.337M1297.31 916.097C1297.46 907.251 1300.09 889.113 1309.44 887.337M1179.03 909.845L1210.4 899.953M1030.2 717.411L1035.59 721.275M1035.59 721.275C1043.27 719.837 1059.75 711.791 1064.24 691.109M1009.18 711.116L997.495 805.391L1007.29 806.727L1019.52 711.116M1015.47 667.504L1039.37 498L1049.17 499.336L1046.94 516.884M1028.49 662.109L1037.52 591.07M1046.94 516.884C1057.73 506.393 1084.7 490.087 1106.27 508.791C1133.24 532.171 1168.3 563.194 1200.22 524.078C1202.31 526.475 1204.17 534.778 1194.82 548.806C1183.14 566.341 1147.51 595.566 1095.48 569.938C1053.86 549.436 1039.5 575.483 1037.52 591.07M1046.94 516.884L1037.52 591.07M1193.92 629.961C1181.49 611.752 1178.55 578.481 1266.29 591.07C1375.97 606.806 1350.06 881.178 1418.22 859.938C1473.51 842.709 1413.73 743.264 1463.17 694.031C1512.62 644.798 1608.81 672.45 1616 677.395" stroke="white" stroke-width="5" stroke-linecap="round" stroke-linejoin="round"/>
<path d="M666.092 272.156L623.324 301.279C618.311 301.436 609.789 309.265 615.804 339.327L625.978 364.223M666.092 272.156L644.943 263.701M666.092 272.156C666.718 270.747 670.98 268.774 683.011 272.156M629.434 372.678L637.893 392.407V409.787C636.326 413.858 636.483 422 649.642 422C666.092 422 675.021 416.833 678.781 409.787C681.789 404.15 680.034 398.67 678.781 396.635L693.82 399.923C699.303 399.923 707.826 397.198 698.05 386.3L678.781 378.315L674.081 364.223M629.434 372.678C640.243 366.572 664.306 356.332 674.081 364.223M629.434 372.678L625.978 364.223M674.081 364.223L671.185 350.601M717.789 317.72L666.092 326.645L671.185 350.601M717.789 317.72C709.517 307.198 712.776 295.173 715.439 290.475C746.646 329.181 777.946 330.716 789.696 326.645M717.789 317.72C730.009 330.559 761.497 350.319 789.696 326.645M633.193 259.003L567.397 253.836C560.974 254.776 549.35 251.582 554.237 231.289L556.964 208.272M633.193 259.003C637.973 246.79 641.024 217.009 614.985 195.59M633.193 259.003L644.943 263.701M587.606 208.272V195.59L584.081 191.597M587.606 208.272L578.206 213.439M587.606 208.272C592.432 205.193 602.847 200.539 615.804 198.863M637.893 199.348C632.889 198.431 627.994 198.129 623.324 198.265M615.804 198.863L614.985 195.59M615.804 198.863C618.228 198.549 620.742 198.34 623.324 198.265M623.324 142.51C617.998 138.283 608.191 128.888 611.575 125.13C614.958 121.372 617.998 119.18 619.094 118.554L645.883 135.934L645.656 142.51M623.324 142.51H645.656M623.324 142.51L620.88 148.617M644.943 163.178C640.4 163.022 631.032 163.93 629.904 168.815M644.943 163.178L660.609 181.967M644.943 163.178L645.445 148.617M666.092 188.544C670.322 186.665 685.361 187.604 692.88 187.135C698.896 186.759 708.546 190.423 712.619 192.302C725.874 197.757 748.393 206.823 766.055 213.439M666.092 188.544C662.8 189.978 657.761 192.731 653.872 196.14M666.092 188.544L663.35 185.256M795.805 235.047C761.215 219.64 737.841 236.143 730.479 246.321C729.308 247.597 727.63 249.329 725.779 251.09M795.805 235.047C798.155 231.446 800.223 223.68 789.696 221.425C787.538 220.963 783.924 219.836 779.356 218.26M795.805 235.047C805.581 247.343 807.711 255.828 807.555 258.534M653.872 196.14C650.545 199.059 648.059 202.458 648.233 205.924C648.609 213.439 671.575 233.168 683.011 242.093L698.05 254.776C702.28 256.342 711.679 259.285 715.439 258.534C717.248 258.172 719.999 256.202 722.751 253.836M653.872 196.14C653.872 196.529 692.88 241.154 720.609 231.759M720.609 231.759C718.102 236.661 715.627 247.389 725.779 251.09M720.609 231.759C733.925 224.169 764.317 210.842 779.356 218.26M725.779 251.09C724.802 252.018 723.776 252.955 722.751 253.836M779.356 218.26C775.5 216.929 770.965 215.279 766.055 213.439M789.696 326.645L832.463 350.601C838.573 359.056 856.338 369.108 878.521 341.676L893.56 318.579M789.696 326.645C797.842 323.67 814.98 310.58 818.364 282.02M897.79 312.083L915.649 297.052L928.808 290.475C932.568 286.717 938.96 277.793 934.448 272.156C929.936 266.519 921.915 255.763 918.469 251.09C915.649 249.5 908.506 247.824 902.49 253.836C896.474 259.849 894.03 263.857 893.56 265.11L890.27 254.776C886.354 251.801 878.521 248.481 878.521 259.003C878.521 269.525 875.388 274.974 873.821 276.383M897.79 312.083L893.56 318.579M897.79 312.083C888.234 305.976 870.061 290.287 873.821 276.383M873.821 276.383L864.892 282.02M864.892 282.02L837.163 301.279M864.892 282.02C868.495 294.493 879.273 319.266 893.56 318.579M837.163 301.279C835.597 304.724 833.403 314.619 837.163 326.645M837.163 301.279L818.364 282.02M818.364 282.02C820.62 275.256 812.098 263.544 807.555 258.534M722.751 253.836C722.751 253.836 727.614 254.501 729.964 256.655C732.314 258.809 734.708 265.11 734.708 265.11C752.411 254.306 791.763 237.865 807.555 258.534M614.985 195.59L611.575 181.967C610.478 178.836 609.789 170.318 615.804 161.299L620.88 148.617M623.324 198.265C627.069 199.019 631.809 201.359 636.09 205.924M644.943 263.701C649.762 239.617 646.88 223.616 641.428 213.439M636.09 205.924C638.206 197.938 646.071 181.967 660.609 181.967M636.09 205.924C638.005 207.965 639.827 210.451 641.428 213.439M660.609 181.967L663.35 185.256M641.428 213.439C642.182 205.141 647.622 187.886 663.35 185.256M558.022 199.348L558.467 195.59C551.104 196.842 530.033 195.715 532.149 181.967C533.088 175.861 534.968 171.164 539.668 164.118L573.506 179.619L580.556 187.604M558.022 199.348L580.556 187.604M558.022 199.348L556.964 208.272M580.556 187.604L584.081 191.597M556.964 208.272L584.081 191.597M645.656 142.51L645.445 148.617M620.88 148.617H645.445M625.978 364.223C635.539 359.682 657.965 350.601 671.185 350.601M766.055 213.439C733.674 176.018 686.301 104.65 755.857 118.554C842.803 135.934 963.117 97.8857 918.469 71.5807C873.821 45.2758 783.586 111.038 789.696 3M730.318 275.096C726.748 284.056 719.993 289.782 715.23 287.886C710.467 285.99 709.5 277.19 713.07 268.23C716.64 259.271 723.395 253.544 728.158 255.44C732.921 257.336 733.888 266.136 730.318 275.096Z" stroke="white" stroke-width="5" stroke-linecap="round" stroke-linejoin="round"/>
<path d="M731.609 352.526C737.413 350.579 748.348 345.477 745.65 340.644C749.631 344.688 754.84 353.563 743.826 356.709L760.419 354.571L761.696 364.481L745.102 366.618L762.334 369.435L762.881 373.682L746.743 379.358L763.336 377.221L763.883 381.468L747.29 383.605C752.912 383.6 764.23 384.157 764.521 386.422C764.813 388.687 765.251 392.085 765.433 393.5C760.874 391.689 751.028 388.448 748.11 389.975C753.945 391.622 765.67 395.34 765.889 397.039C766.108 398.738 766.709 403.409 766.983 405.533C761.999 403.776 751.575 400.753 749.751 402.715C755.495 403.654 767.074 406.24 767.438 409.072C767.803 411.903 768.684 418.745 769.079 421.812C766.77 417.312 759.889 408.893 750.845 411.209L743.826 412.5" stroke="white" stroke-width="5"/>
<path d="M634.826 383.448C630.451 384.238 622.011 388.225 623.251 397.854C624.491 407.483 633.666 409.201 638.098 408.857M679 377.5L689.594 376.265M682 403.5L690.5 402.288M690.5 402.288L703.46 400.439L700.188 375.03L689.594 376.265M690.5 402.288L693.793 418.678L741.771 412.499L733.848 350.982L685.87 357.161L689.594 376.265" stroke="white" stroke-width="5"/>
</svg>
