<svg width="1440" height="933" viewBox="0 0 1440 933" fill="none" xmlns="http://www.w3.org/2000/svg">
<path d="M1174.13 636.403L1183.57 639.47M1269.87 694.403L1282.01 711.938L1291.44 729.473C1292.79 732.92 1294.14 740.533 1288.75 743.411C1283.35 746.288 1273.91 752.103 1269.87 754.651C1267.17 752.253 1261.69 746.019 1261.33 740.264L1251.44 729.473L1248.29 734.868M1269.87 694.403L1261.33 686.305M1269.87 694.403L1233.46 715.31M1226.72 708.341L1201.55 691.256M1226.72 708.341L1233.46 715.31M1226.72 708.341C1232.26 701.294 1246.94 687.021 1261.33 686.305M1201.55 691.256C1200.95 686.91 1201.46 677.048 1208.29 672.372M1201.55 691.256L1157.49 694.403M1248.29 734.868L1245.15 740.264C1241.55 742.362 1234.36 743.771 1234.36 732.62L1240.2 722.279L1233.46 715.31M1248.29 734.868C1253.33 741.825 1259.57 756.711 1252.84 769.938M1189.41 819.395C1193.81 816.581 1200.59 812.102 1208.29 806.808M1189.41 819.395C1181.47 815.199 1164.69 808.065 1161.09 813.101M1189.41 819.395L1192.4 867.953M1193.01 877.845L1201.55 901.674L1161.09 930C1153.9 924.155 1143.83 909.318 1161.09 896.729L1166.04 887.736M1193.01 877.845L1166.04 887.736M1193.01 877.845L1192.4 867.953M1166.04 887.736L1161.03 877.845M1174.13 754.651C1170.84 756.349 1162.68 761.38 1151.59 769.938M1174.13 754.651L1171.43 747.008C1181.92 737.191 1205.95 717.333 1218.18 716.434M1174.13 754.651H1178.62C1186.71 744.16 1207.12 723.808 1224.02 726.326M1208.29 806.808C1220.26 798.569 1234.42 788.358 1245.15 779.38C1248.66 776.435 1251.15 773.238 1252.84 769.938M1208.29 806.808L1218.18 851.318C1219.97 860.16 1226.9 877.845 1240.2 877.845C1249.47 877.845 1265.95 881.042 1279.31 884.097M1264.03 838.279L1255.93 847.271M1264.03 838.279L1252.84 769.938M1264.03 838.279L1291.44 855.337M1151.59 769.938C1148 772.712 1144.1 775.857 1139.96 779.38C1123.06 793.767 1127.23 812.052 1131.42 819.395L1161.03 877.845M1151.59 769.938L1131.42 750.605M1131.42 750.605L1121.09 754.651L1100.94 716.434M1131.42 750.605L1157.49 732.62L1133.95 705.194M1100.94 716.434L1133.95 705.194M1100.94 716.434L1097.98 710.814M1133.95 705.194L1124.68 694.403L1095.02 705.194L1097.98 710.814M1097.98 710.814L1073.44 716.434C1066.7 717.333 1051.41 716.974 1044.22 708.341L1017.59 689.275M1006.02 653.488C1005.95 652.642 1005.8 651.56 1005.54 650.341M1005.54 650.341C1008.09 651.99 1013.57 654.298 1015.01 650.341C1016.44 646.384 1015.6 641.199 1015.01 639.101M1005.54 650.341C1004.92 647.431 1003.68 643.738 1001.52 640.595M1001.52 640.595C1000.42 638.997 999.087 637.542 997.475 636.403L989.384 627.411L975 658.434L989.384 677.767C991.931 681.364 997.924 686.4 1001.52 677.767L1012.2 685.411M1001.52 640.595C1002.87 636.8 1006.82 629.389 1011.86 630.109C1016.89 630.828 1030.14 643.897 1036.13 650.341M1036.13 650.341C1036.13 666.527 1020.17 680.465 1012.2 685.411M1036.13 650.341L1046.24 659.109M1056.36 667.876L1059.51 685.411M1056.36 667.876L1073.44 666.527C1076.51 679.835 1099.24 695.802 1127.54 689.275C1155.84 682.748 1164.16 661.851 1161.09 648.543M1056.36 667.876L1046.24 659.109M1100.94 701.147L1095.02 688.109M1163.5 612.798L1175.92 597.961M1193.01 642.536L1226.72 653.488L1261.33 686.305M1193.01 642.536L1208.29 627.411L1221.32 612.798M1193.01 642.536L1183.57 639.47M1221.32 612.798L1234.36 598.186L1185.81 589.194L1175.92 597.961M1221.32 612.798L1279.31 672.372L1261.33 686.305M1166.04 624.264C1169.58 624.815 1178.49 627.384 1185.81 633.256L1183.57 639.47M1139.96 628.76C1149.15 628.76 1156.6 636.208 1156.6 645.395C1156.6 654.583 1149.15 662.031 1139.96 662.031C1130.78 662.031 1123.33 654.583 1123.33 645.395C1123.33 638.331 1127.74 632.294 1133.95 629.882M1139.96 628.76C1137.84 628.76 1135.81 629.157 1133.95 629.882M1139.96 628.76C1142.12 612.933 1130.23 599.835 1123.33 595.488C1113.35 589.194 1087.37 574.806 1081.08 577.054C1076.05 578.853 1075.09 581.7 1075.24 582.899L1080.18 585.191M1080.18 585.191C1067.09 594.78 1058.61 610.121 1058.61 627.411C1058.61 656.464 1082.55 680.016 1112.1 680.016C1141.64 680.016 1165.59 656.464 1165.59 627.411C1165.59 598.358 1141.64 574.806 1112.1 574.806C1104.59 574.806 1097.45 576.326 1090.97 579.068M1080.18 585.191C1096.1 590.571 1129.13 607.041 1133.95 629.882M1288.75 886.352C1290.76 886.853 1292.57 887.321 1294.14 887.736L1288.75 901.674C1284.85 907.519 1282.72 919.569 1305.38 921.008L1327.85 877.845L1300.88 861.209L1298.19 859.531M1288.75 886.352C1289.5 876.853 1292.43 858.189 1298.19 859.531M1288.75 886.352C1285.92 885.647 1282.72 884.876 1279.31 884.097M1298.19 859.531L1291.44 855.337M1279.31 884.097C1279.46 875.251 1282.09 857.113 1291.44 855.337M1161.03 877.845L1192.4 867.953M1012.2 685.411L1017.59 689.275M1017.59 689.275C1025.27 687.837 1041.75 679.791 1046.24 659.109M991.182 679.116L979.495 773.391L989.293 774.727L1001.52 679.116M997.475 635.504L1021.37 466L1031.17 467.336L1028.94 484.884M1010.49 630.109L1019.52 559.07M1028.94 484.884C1039.73 474.393 1066.7 458.087 1088.27 476.791C1115.24 500.171 1150.3 531.194 1182.22 492.078C1184.31 494.475 1186.17 502.778 1176.82 516.806C1165.14 534.341 1129.51 563.566 1077.48 537.938C1035.86 517.436 1021.5 543.483 1019.52 559.07M1028.94 484.884L1019.52 559.07M1175.92 597.961C1163.49 579.752 1160.55 546.481 1248.29 559.07C1357.97 574.806 1332.06 849.178 1400.22 827.938C1455.51 810.709 1395.73 711.264 1445.17 662.031C1494.62 612.798 1590.81 640.45 1598 645.395" stroke="white" stroke-width="5" stroke-linecap="round" stroke-linejoin="round"/>
<path d="M281.955 441.424C264.334 439.649 228.354 445.766 225.403 484.433C224.191 500.315 228.466 511.509 235.479 519.25M281.955 441.424C263.924 449.289 258.324 470.37 257.777 479.928H261.056C276.792 448.47 299.304 450.709 308.592 455.761M281.955 441.424C289.195 440.059 304.658 438.885 308.592 445.111V455.761M289.332 533.996C282.775 531.129 268.268 521.954 262.695 508.191L266.793 504.504C272.665 517.066 291.378 538.83 312.69 520.479L313.51 526.623L304.085 533.996M289.332 533.996C275.574 536.471 249.809 535.069 235.479 519.25M289.332 533.996H304.085M235.479 519.25C232.144 522.391 227.475 529.736 235.479 533.996M235.479 533.996C245.483 539.321 289.332 548.742 304.085 533.996M235.479 533.996C232.554 538.911 228.458 549.152 235.479 550.79C244.254 552.838 288.102 556.934 304.085 545.465M304.085 533.996C307.522 533.996 311.846 534.951 311.048 538.092M304.085 545.465L315.559 568.813M304.085 545.465C308.622 542.209 310.61 539.82 311.048 538.092M315.559 568.813L324.575 565.536L333.219 584.052M315.559 568.813L310.232 572.499L324.575 595.028L330.312 592.57M330.312 592.57L336.049 590.113L333.219 584.052M330.312 592.57V602.811M330.312 602.811L344.655 604.039L354.49 596.666C362.358 593.062 362.413 597.622 361.457 600.353L352.441 610.593H358.998M330.312 602.811L327.033 602.365M211.88 584.052L203.684 586.836L199.176 565.536L213.724 559.392M211.88 584.052L238.926 574.866M211.88 584.052L220.954 604.039M262.695 625.749L281.955 670.806L278.677 672.75M238.926 574.866L245.893 572.499L228.272 553.248L213.724 559.392M238.926 574.866L251.22 595.028M318.837 629.435L336.049 632.712M318.837 629.435C316.215 619.932 323.209 607.429 327.033 602.365M318.837 629.435C316.615 629.413 313.965 629.369 311.048 629.3M311.048 538.092L333.59 543.827L347.217 519.25M370.472 524.165L378.258 513.516L382.69 504.504M370.472 524.165L368.724 529.081M370.472 524.165C365.316 523.073 353.969 519.619 349.829 514.54M333.219 584.052C343.086 587.068 350.145 579.184 352.441 574.866L368.724 529.081M278.677 672.75L257.777 685.142L249.594 667.119M278.677 672.75C280.863 678.792 287.119 691.041 294.659 691.696C296.237 691.833 299.578 690.848 304.085 689.09M446.695 691.696L430.303 681.456M446.695 691.696C452.569 682.824 465.873 663.81 472.102 658.727M446.695 691.696L451.203 695.095M474.151 660.156L487.265 652.373C498.739 645.492 512.536 661.794 518 670.806L470.053 709.309L451.203 695.095M474.151 660.156L472.102 658.727M474.151 660.156L451.203 695.095M358.998 610.593H365.555C372.111 609.938 373.751 613.051 373.751 614.689C374.024 617.42 374.242 623.865 372.931 627.797C371.62 631.729 369.106 633.258 368.013 633.531L344.655 634.351L336.049 632.712M358.998 610.593L365.555 602.811C380.307 593.308 397.109 604.312 403.666 611.003L472.102 658.727M292.2 654.831C293.858 651.281 297.382 647.981 301.626 645.084M336.049 632.712L324.575 634.351C322.949 634.851 320.986 635.525 318.837 636.353M318.837 682.63C336.434 674.378 359.156 662.371 372.931 654.831C386.864 652.373 385.717 645.164 407.354 667.119L430.303 681.456M318.837 682.63L372.931 701.117C377.166 700.98 385.143 705.377 383.176 724.055L381.149 774.028M318.837 682.63C316.705 683.631 314.647 684.576 312.69 685.451M380.717 784.677L375.39 803.11L436.45 824C442.05 813.76 448.662 791.149 430.303 782.629L422.517 778.943M380.717 784.677C393.011 782.766 418.583 778.943 422.517 778.943M380.717 784.677L381.149 774.028M422.517 778.943L422.909 774.028M430.303 681.456L422.909 774.028M308.592 455.761C317.645 455.761 324.984 470.432 324.984 488.529C324.984 506.627 317.645 522.117 308.592 522.117M347.217 519.25C352.711 524.165 364.703 533.013 368.724 529.081M347.217 519.25L349.829 514.54M349.829 514.54L352.441 509.829L347.114 486.072C347.25 481.02 348.917 473.62 354.49 484.433L356.539 493.445L362.276 486.686M327.033 602.365L318.837 601.252M311.048 629.3C296.215 628.948 274.464 627.939 266.793 625.749C257.613 623.127 252.586 614.826 251.22 611.003L257.777 568.813C278.431 547.841 287.419 560.075 289.332 568.813C289.878 574.957 284.004 587.082 284.004 591.342C284.004 595.601 286.736 596.939 288.102 597.076L318.837 601.252M311.048 629.3C311.732 620.796 314.248 603.281 318.837 601.252M220.954 604.039L211.88 610.593L238.926 672.75L249.594 667.119M220.954 604.039L249.594 667.119M318.837 636.353C309.002 644.766 294.004 666.365 312.69 685.451M318.837 636.353C313.489 638.413 306.983 641.427 301.626 645.084M312.69 685.451C309.524 686.868 306.62 688.101 304.085 689.09M304.085 689.09C298.621 681.549 290.479 662.191 301.626 645.084M381.149 774.028C394.38 772.935 421.256 771.406 422.909 774.028M213.724 559.392C202.454 534.406 175.319 382.145 127.871 385.041C74.1871 388.318 172.539 735.257 141.804 739.763C111.069 744.269 52.8775 614.689 25.0111 614.689C2.71804 614.689 -23.6184 614.689 -34 614.689M382.69 504.504L402.5 517.5C403.028 517.81 405.068 517.448 409 513.516C412.932 509.583 411.638 505.87 410.5 504.504L388.128 493.445M382.69 504.504L388.128 493.445M388.128 493.445L390.143 489.349C393.093 486.072 391.372 481.703 390.143 479.928C388.64 477.88 384.487 473.046 379.898 470.097C376.623 467.993 373.015 471.601 370.472 475.478M370.472 475.478C369.45 477.035 368.601 478.636 368.013 479.928L362.276 486.686M370.472 475.478L358.5 467M358.5 467L364.5 459C363.833 457.167 362.9 453 364.5 451C366.1 449 370.833 450.167 373 451L382.69 441.424C381.443 437.45 376.903 428.9 368.724 426.5L361.5 433C363.154 434.167 365.469 437.2 361.5 440C357.531 442.8 355.173 440.5 354.49 439L333.59 464C330.916 467.285 333.253 482.471 342 488.529C342 488.529 338.5 483 342 477.5C345.5 472 349.829 477.5 349.829 477.5M358.5 467L349.829 477.5M349.829 477.5L362.276 486.686M272.12 494.264C272.12 502.182 265.882 508.6 258.187 508.6C250.492 508.6 244.254 502.182 244.254 494.264C244.254 486.346 250.492 479.928 258.187 479.928C265.882 479.928 272.12 486.346 272.12 494.264Z" stroke="white" stroke-width="5" stroke-linecap="round" stroke-linejoin="round"/>
<path d="M652.092 188.156L609.324 217.279C604.311 217.436 595.789 225.265 601.804 255.327L611.978 280.223M652.092 188.156L630.943 179.701M652.092 188.156C652.718 186.747 656.98 184.774 669.011 188.156M615.434 288.678L623.893 308.407V325.787C622.326 329.858 622.483 338 635.642 338C652.092 338 661.021 332.833 664.781 325.787C667.789 320.15 666.034 314.67 664.781 312.635L679.82 315.923C685.303 315.923 693.826 313.198 684.05 302.3L664.781 294.315L660.081 280.223M615.434 288.678C626.243 282.572 650.306 272.332 660.081 280.223M615.434 288.678L611.978 280.223M660.081 280.223L657.185 266.601M703.789 233.72L652.092 242.645L657.185 266.601M703.789 233.72C695.517 223.198 698.776 211.173 701.439 206.475C732.646 245.181 763.946 246.716 775.696 242.645M703.789 233.72C716.009 246.559 747.497 266.319 775.696 242.645M619.193 175.003L553.397 169.836C546.974 170.776 535.35 167.582 540.237 147.289L542.964 124.272M619.193 175.003C623.973 162.79 627.024 133.009 600.985 111.59M619.193 175.003L630.943 179.701M573.606 124.272V111.59L570.081 107.597M573.606 124.272L564.206 129.439M573.606 124.272C578.432 121.193 588.847 116.539 601.804 114.863M623.893 115.348C618.889 114.431 613.994 114.129 609.324 114.265M601.804 114.863L600.985 111.59M601.804 114.863C604.228 114.549 606.742 114.34 609.324 114.265M609.324 58.5101C603.998 54.2825 594.191 44.8879 597.575 41.1301C600.958 37.3722 603.998 35.1801 605.094 34.5538L631.883 51.9339L631.656 58.5101M609.324 58.5101H631.656M609.324 58.5101L606.88 64.6166M630.943 79.1783C626.4 79.0217 617.032 79.9298 615.904 84.815M630.943 79.1783L646.609 97.9675M630.943 79.1783L631.445 64.6166M652.092 104.544C656.322 102.665 671.361 103.604 678.88 103.135C684.896 102.759 694.546 106.423 698.619 108.302C711.874 113.757 734.393 122.823 752.055 129.439M652.092 104.544C648.8 105.978 643.761 108.731 639.872 112.14M652.092 104.544L649.35 101.256M781.805 151.047C747.215 135.64 723.841 152.143 716.479 162.321C715.308 163.597 713.63 165.329 711.779 167.09M781.805 151.047C784.155 147.446 786.223 139.68 775.696 137.425C773.538 136.963 769.924 135.836 765.356 134.26M781.805 151.047C791.581 163.343 793.711 171.828 793.555 174.534M639.872 112.14C636.545 115.059 634.059 118.458 634.233 121.924C634.609 129.439 657.575 149.168 669.011 158.093L684.05 170.776C688.28 172.342 697.679 175.285 701.439 174.534C703.248 174.172 705.999 172.202 708.751 169.836M639.872 112.14C639.872 112.529 678.88 157.154 706.609 147.759M706.609 147.759C704.102 152.661 701.627 163.389 711.779 167.09M706.609 147.759C719.925 140.169 750.317 126.842 765.356 134.26M711.779 167.09C710.802 168.018 709.776 168.955 708.751 169.836M765.356 134.26C761.5 132.929 756.965 131.279 752.055 129.439M775.696 242.645L818.463 266.601C824.573 275.056 842.338 285.108 864.521 257.676L879.56 234.579M775.696 242.645C783.842 239.67 800.98 226.58 804.364 198.02M883.79 228.083L901.649 213.052L914.808 206.475C918.568 202.717 924.96 193.793 920.448 188.156C915.936 182.519 907.915 171.763 904.469 167.09C901.649 165.5 894.506 163.824 888.49 169.836C882.474 175.849 880.03 179.857 879.56 181.11L876.27 170.776C872.354 167.801 864.521 164.481 864.521 175.003C864.521 185.525 861.388 190.974 859.821 192.383M883.79 228.083L879.56 234.579M883.79 228.083C874.234 221.976 856.061 206.287 859.821 192.383M859.821 192.383L850.892 198.02M850.892 198.02L823.163 217.279M850.892 198.02C854.495 210.493 865.273 235.266 879.56 234.579M823.163 217.279C821.597 220.724 819.403 230.619 823.163 242.645M823.163 217.279L804.364 198.02M804.364 198.02C806.62 191.256 798.098 179.544 793.555 174.534M708.751 169.836C708.751 169.836 713.614 170.501 715.964 172.655C718.314 174.809 720.708 181.11 720.708 181.11C738.411 170.306 777.763 153.865 793.555 174.534M600.985 111.59L597.575 97.9675C596.478 94.836 595.789 86.3182 601.804 77.2993L606.88 64.6166M609.324 114.265C613.069 115.019 617.809 117.359 622.09 121.924M630.943 179.701C635.762 155.617 632.88 139.616 627.428 129.439M622.09 121.924C624.206 113.938 632.071 97.9675 646.609 97.9675M622.09 121.924C624.005 123.965 625.827 126.451 627.428 129.439M646.609 97.9675L649.35 101.256M627.428 129.439C628.182 121.141 633.622 103.886 649.35 101.256M544.022 115.348L544.467 111.59C537.104 112.842 516.033 111.715 518.149 97.9675C519.088 91.861 520.968 87.1637 525.668 80.1177L559.506 95.6188L566.556 103.604M544.022 115.348L566.556 103.604M544.022 115.348L542.964 124.272M566.556 103.604L570.081 107.597M542.964 124.272L570.081 107.597M631.656 58.5101L631.445 64.6166M606.88 64.6166H631.445M611.978 280.223C621.539 275.682 643.965 266.601 657.185 266.601M752.055 129.439C719.674 92.0176 672.301 20.6498 741.857 34.5538C828.803 51.9339 949.117 13.8857 904.469 -12.4193C859.821 -38.7242 769.586 27.0381 775.696 -81M716.318 191.096C712.748 200.056 705.993 205.782 701.23 203.886C696.467 201.99 695.5 193.19 699.07 184.23C702.64 175.271 709.395 169.544 714.158 171.44C718.921 173.336 719.888 182.136 716.318 191.096Z" stroke="white" stroke-width="5" stroke-linecap="round" stroke-linejoin="round"/>
<path d="M717.609 268.526C723.413 266.579 734.348 261.477 731.65 256.644C735.631 260.688 740.84 269.563 729.826 272.709L746.419 270.571L747.695 280.481L731.102 282.618L748.334 285.435L748.881 289.682L732.743 295.358L749.336 293.221L749.883 297.468L733.29 299.605C738.912 299.6 750.23 300.157 750.521 302.422C750.813 304.687 751.251 308.085 751.433 309.5C746.874 307.689 737.028 304.448 734.11 305.975C739.945 307.622 751.67 311.34 751.889 313.039C752.107 314.738 752.709 319.409 752.983 321.533C747.999 319.776 737.575 316.753 735.751 318.715C741.495 319.654 753.074 322.24 753.438 325.072C753.803 327.903 754.684 334.745 755.079 337.812C752.77 333.312 745.889 324.893 736.845 327.209L729.826 328.5" stroke="white" stroke-width="5"/>
<path d="M620.826 299.448C616.451 300.238 608.011 304.225 609.251 313.854C610.491 323.483 619.666 325.201 624.098 324.857M665 293.5L675.594 292.265M668 319.5L676.5 318.288M676.5 318.288L689.46 316.439L686.188 291.03L675.594 292.265M676.5 318.288L679.792 334.678L727.771 328.499L719.848 266.982L671.87 273.161L675.594 292.265" stroke="white" stroke-width="5"/>
<path d="M475.252 568.14H466.432V565.62H487.096V568.14H478.24V591H475.252V568.14Z" fill="white"/>
<path d="M499.036 573.036C503.236 573.036 505.336 575.352 505.336 579.984V591H502.42V580.164C502.42 578.532 502.096 577.344 501.448 576.6C500.824 575.856 499.816 575.484 498.424 575.484C496.816 575.484 495.532 575.976 494.572 576.96C493.612 577.944 493.132 579.276 493.132 580.956V591H490.216V565.62H493.132V576.276C493.708 575.22 494.5 574.416 495.508 573.864C496.54 573.312 497.716 573.036 499.036 573.036Z" fill="white"/>
<path d="M510.677 573.468H513.593V591H510.677V573.468ZM513.917 565.872V569.148H510.389V565.872H513.917Z" fill="white"/>
<path d="M524.984 591.252C522.032 591.252 519.692 590.496 517.964 588.984L518.936 586.824C519.872 587.568 520.82 588.108 521.78 588.444C522.764 588.756 523.868 588.912 525.092 588.912C526.388 588.912 527.372 588.696 528.044 588.264C528.74 587.808 529.088 587.16 529.088 586.32C529.088 585.624 528.86 585.072 528.404 584.664C527.948 584.256 527.192 583.932 526.136 583.692L523.184 583.008C521.696 582.672 520.556 582.096 519.764 581.28C518.972 580.464 518.576 579.456 518.576 578.256C518.576 576.696 519.188 575.436 520.412 574.476C521.636 573.516 523.268 573.036 525.308 573.036C526.532 573.036 527.696 573.24 528.8 573.648C529.904 574.032 530.828 574.596 531.572 575.34L530.6 577.464C528.992 576.096 527.228 575.412 525.308 575.412C524.084 575.412 523.124 575.652 522.428 576.132C521.756 576.588 521.42 577.236 521.42 578.076C521.42 578.772 521.624 579.336 522.032 579.768C522.464 580.176 523.148 580.488 524.084 580.704L527.072 581.424C528.704 581.808 529.916 582.396 530.708 583.188C531.5 583.956 531.896 584.964 531.896 586.212C531.896 587.748 531.272 588.972 530.024 589.884C528.8 590.796 527.12 591.252 524.984 591.252Z" fill="white"/>
<path d="M554.442 573.036C555.978 573.036 557.334 573.42 558.51 574.188C559.686 574.956 560.598 576.036 561.246 577.428C561.894 578.796 562.218 580.392 562.218 582.216C562.218 584.04 561.894 585.636 561.246 587.004C560.598 588.348 559.686 589.392 558.51 590.136C557.358 590.88 556.002 591.252 554.442 591.252C553.074 591.252 551.874 590.952 550.842 590.352C549.834 589.752 549.066 588.9 548.538 587.796V597.48H545.622V573.468H548.538V576.492C549.066 575.388 549.834 574.536 550.842 573.936C551.874 573.336 553.074 573.036 554.442 573.036ZM553.866 588.84C555.57 588.84 556.89 588.264 557.826 587.112C558.762 585.96 559.23 584.328 559.23 582.216C559.23 580.104 558.762 578.46 557.826 577.284C556.89 576.084 555.57 575.484 553.866 575.484C552.162 575.484 550.842 576.06 549.906 577.212C548.994 578.364 548.538 580.008 548.538 582.144C548.538 584.28 548.994 585.936 549.906 587.112C550.842 588.264 552.162 588.84 553.866 588.84Z" fill="white"/>
<path d="M573.703 573.036C575.935 573.036 577.591 573.612 578.671 574.764C579.775 575.892 580.327 577.62 580.327 579.948V591H577.483V588.012C577.027 589.044 576.331 589.848 575.395 590.424C574.459 590.976 573.379 591.252 572.155 591.252C571.027 591.252 569.983 591.024 569.023 590.568C568.087 590.112 567.343 589.476 566.791 588.66C566.239 587.844 565.963 586.944 565.963 585.96C565.963 584.64 566.299 583.62 566.971 582.9C567.643 582.156 568.747 581.628 570.283 581.316C571.819 580.98 573.955 580.812 576.691 580.812H577.483V579.624C577.483 578.16 577.183 577.104 576.583 576.456C575.983 575.784 575.011 575.448 573.667 575.448C571.651 575.448 569.647 576.072 567.655 577.32L566.683 575.196C567.595 574.548 568.687 574.032 569.959 573.648C571.255 573.24 572.503 573.036 573.703 573.036ZM572.551 588.948C573.991 588.948 575.167 588.468 576.079 587.508C577.015 586.524 577.483 585.264 577.483 583.728V582.684H576.835C574.723 582.684 573.115 582.78 572.011 582.972C570.907 583.14 570.115 583.44 569.635 583.872C569.179 584.28 568.951 584.892 568.951 585.708C568.951 586.644 569.287 587.424 569.959 588.048C570.655 588.648 571.519 588.948 572.551 588.948Z" fill="white"/>
<path d="M601.361 573.468V589.812C601.361 592.428 600.689 594.396 599.345 595.716C598.001 597.06 596.009 597.732 593.369 597.732C590.297 597.732 587.717 596.94 585.629 595.356L586.601 593.196C587.777 593.964 588.881 594.516 589.913 594.852C590.945 595.188 592.097 595.356 593.369 595.356C595.049 595.356 596.321 594.9 597.185 593.988C598.049 593.1 598.481 591.792 598.481 590.064V586.968C597.977 588.096 597.197 588.96 596.141 589.56C595.109 590.16 593.885 590.46 592.469 590.46C590.933 590.46 589.565 590.1 588.365 589.38C587.189 588.66 586.265 587.64 585.593 586.32C584.945 585 584.621 583.476 584.621 581.748C584.621 580.02 584.945 578.496 585.593 577.176C586.265 575.856 587.189 574.836 588.365 574.116C589.565 573.396 590.933 573.036 592.469 573.036C593.861 573.036 595.073 573.336 596.105 573.936C597.137 574.536 597.917 575.388 598.445 576.492V573.468H601.361ZM593.045 588.048C594.725 588.048 596.045 587.496 597.005 586.392C597.965 585.264 598.445 583.716 598.445 581.748C598.445 579.804 597.965 578.28 597.005 577.176C596.069 576.048 594.749 575.484 593.045 575.484C591.341 575.484 589.997 576.048 589.013 577.176C588.053 578.28 587.573 579.804 587.573 581.748C587.573 583.716 588.053 585.264 589.013 586.392C589.997 587.496 591.341 588.048 593.045 588.048Z" fill="white"/>
<path d="M621.447 582.684H608.631C608.727 584.724 609.279 586.272 610.287 587.328C611.295 588.36 612.723 588.876 614.571 588.876C616.611 588.876 618.483 588.18 620.187 586.788L621.159 588.912C620.391 589.632 619.407 590.208 618.207 590.64C617.007 591.048 615.783 591.252 614.535 591.252C611.799 591.252 609.639 590.448 608.055 588.84C606.495 587.232 605.715 585.012 605.715 582.18C605.715 580.38 606.063 578.796 606.759 577.428C607.455 576.036 608.427 574.956 609.675 574.188C610.947 573.42 612.387 573.036 613.995 573.036C616.323 573.036 618.147 573.804 619.467 575.34C620.787 576.852 621.447 578.94 621.447 581.604V582.684ZM614.031 575.304C612.495 575.304 611.259 575.784 610.323 576.744C609.411 577.704 608.871 579.06 608.703 580.812H618.891C618.843 579.036 618.399 577.68 617.559 576.744C616.719 575.784 615.543 575.304 614.031 575.304Z" fill="white"/>
<path d="M635.024 573.468H637.94V591H635.024V573.468ZM638.264 565.872V569.148H634.736V565.872H638.264Z" fill="white"/>
<path d="M649.331 591.252C646.379 591.252 644.039 590.496 642.311 588.984L643.283 586.824C644.219 587.568 645.167 588.108 646.127 588.444C647.111 588.756 648.215 588.912 649.439 588.912C650.735 588.912 651.719 588.696 652.391 588.264C653.087 587.808 653.435 587.16 653.435 586.32C653.435 585.624 653.207 585.072 652.751 584.664C652.295 584.256 651.539 583.932 650.483 583.692L647.531 583.008C646.043 582.672 644.903 582.096 644.111 581.28C643.319 580.464 642.923 579.456 642.923 578.256C642.923 576.696 643.535 575.436 644.759 574.476C645.983 573.516 647.615 573.036 649.655 573.036C650.879 573.036 652.043 573.24 653.147 573.648C654.251 574.032 655.175 574.596 655.919 575.34L654.947 577.464C653.339 576.096 651.575 575.412 649.655 575.412C648.431 575.412 647.471 575.652 646.775 576.132C646.103 576.588 645.767 577.236 645.767 578.076C645.767 578.772 645.971 579.336 646.379 579.768C646.811 580.176 647.495 580.488 648.431 580.704L651.419 581.424C653.051 581.808 654.263 582.396 655.055 583.188C655.847 583.956 656.243 584.964 656.243 586.212C656.243 587.748 655.619 588.972 654.371 589.884C653.147 590.796 651.467 591.252 649.331 591.252Z" fill="white"/>
<path d="M677.098 573.036C679.33 573.036 680.986 573.612 682.066 574.764C683.17 575.892 683.722 577.62 683.722 579.948V591H680.878V588.012C680.422 589.044 679.726 589.848 678.79 590.424C677.854 590.976 676.774 591.252 675.55 591.252C674.422 591.252 673.378 591.024 672.418 590.568C671.482 590.112 670.738 589.476 670.186 588.66C669.634 587.844 669.358 586.944 669.358 585.96C669.358 584.64 669.694 583.62 670.366 582.9C671.038 582.156 672.142 581.628 673.678 581.316C675.214 580.98 677.35 580.812 680.086 580.812H680.878V579.624C680.878 578.16 680.578 577.104 679.978 576.456C679.378 575.784 678.406 575.448 677.062 575.448C675.046 575.448 673.042 576.072 671.05 577.32L670.078 575.196C670.99 574.548 672.082 574.032 673.354 573.648C674.65 573.24 675.898 573.036 677.098 573.036ZM675.946 588.948C677.386 588.948 678.562 588.468 679.474 587.508C680.41 586.524 680.878 585.264 680.878 583.728V582.684H680.23C678.118 582.684 676.51 582.78 675.406 582.972C674.302 583.14 673.51 583.44 673.03 583.872C672.574 584.28 672.346 584.892 672.346 585.708C672.346 586.644 672.682 587.424 673.354 588.048C674.05 588.648 674.914 588.948 675.946 588.948Z" fill="white"/>
<path d="M725.053 573.468L718.537 591H715.729L710.797 577.428L705.829 591H703.057L696.541 573.468H699.565L704.533 587.544L709.609 573.468H712.129L717.133 587.544L722.137 573.468H725.053Z" fill="white"/>
<path d="M735.706 591.252C734.05 591.252 732.586 590.88 731.314 590.136C730.066 589.392 729.094 588.336 728.398 586.968C727.726 585.576 727.39 583.968 727.39 582.144C727.39 580.32 727.726 578.724 728.398 577.356C729.094 575.964 730.066 574.896 731.314 574.152C732.586 573.408 734.05 573.036 735.706 573.036C737.362 573.036 738.826 573.408 740.098 574.152C741.37 574.896 742.342 575.964 743.014 577.356C743.71 578.724 744.058 580.32 744.058 582.144C744.058 583.968 743.71 585.576 743.014 586.968C742.342 588.336 741.37 589.392 740.098 590.136C738.826 590.88 737.362 591.252 735.706 591.252ZM735.706 588.84C737.434 588.84 738.754 588.276 739.666 587.148C740.602 585.996 741.07 584.328 741.07 582.144C741.07 580.008 740.602 578.364 739.666 577.212C738.73 576.036 737.41 575.448 735.706 575.448C734.002 575.448 732.682 576.036 731.746 577.212C730.81 578.364 730.342 580.008 730.342 582.144C730.342 584.304 730.798 585.96 731.71 587.112C732.646 588.264 733.978 588.84 735.706 588.84Z" fill="white"/>
<path d="M758.339 575.556L756.431 575.736C754.631 575.904 753.323 576.468 752.507 577.428C751.715 578.388 751.319 579.576 751.319 580.992V591H748.403V573.468H751.247V576.528C752.231 574.488 754.163 573.348 757.043 573.108L758.087 573.036L758.339 575.556Z" fill="white"/>
<path d="M772.939 591L764.011 582.612V591H761.095V565.62H764.011V581.424L772.183 573.504H775.891L767.179 581.892L776.719 591H772.939Z" fill="white"/>
<path d="M788.376 573.468H791.292V591H788.376V573.468ZM791.616 565.872V569.148H788.088V565.872H791.616Z" fill="white"/>
<path d="M805.563 573.036C809.763 573.036 811.863 575.352 811.863 579.984V591H808.947V580.164C808.947 578.532 808.623 577.344 807.975 576.6C807.351 575.856 806.343 575.484 804.951 575.484C803.343 575.484 802.059 575.976 801.099 576.96C800.139 577.944 799.659 579.276 799.659 580.956V591H796.743V573.468H799.623V576.348C800.199 575.268 801.003 574.452 802.035 573.9C803.067 573.324 804.243 573.036 805.563 573.036Z" fill="white"/>
<path d="M835.305 573.036C836.841 573.036 838.197 573.42 839.373 574.188C840.549 574.956 841.461 576.036 842.109 577.428C842.757 578.796 843.081 580.392 843.081 582.216C843.081 584.04 842.757 585.636 842.109 587.004C841.461 588.348 840.549 589.392 839.373 590.136C838.221 590.88 836.865 591.252 835.305 591.252C833.937 591.252 832.737 590.952 831.705 590.352C830.697 589.752 829.929 588.9 829.401 587.796V597.48H826.485V573.468H829.401V576.492C829.929 575.388 830.697 574.536 831.705 573.936C832.737 573.336 833.937 573.036 835.305 573.036ZM834.729 588.84C836.433 588.84 837.753 588.264 838.689 587.112C839.625 585.96 840.093 584.328 840.093 582.216C840.093 580.104 839.625 578.46 838.689 577.284C837.753 576.084 836.433 575.484 834.729 575.484C833.025 575.484 831.705 576.06 830.769 577.212C829.857 578.364 829.401 580.008 829.401 582.144C829.401 584.28 829.857 585.936 830.769 587.112C831.705 588.264 833.025 588.84 834.729 588.84Z" fill="white"/>
<path d="M857.374 575.556L855.466 575.736C853.666 575.904 852.358 576.468 851.542 577.428C850.75 578.388 850.354 579.576 850.354 580.992V591H847.438V573.468H850.282V576.528C851.266 574.488 853.198 573.348 856.078 573.108L857.122 573.036L857.374 575.556Z" fill="white"/>
<path d="M867.05 591.252C865.394 591.252 863.93 590.88 862.658 590.136C861.41 589.392 860.438 588.336 859.742 586.968C859.07 585.576 858.734 583.968 858.734 582.144C858.734 580.32 859.07 578.724 859.742 577.356C860.438 575.964 861.41 574.896 862.658 574.152C863.93 573.408 865.394 573.036 867.05 573.036C868.706 573.036 870.17 573.408 871.442 574.152C872.714 574.896 873.686 575.964 874.358 577.356C875.054 578.724 875.402 580.32 875.402 582.144C875.402 583.968 875.054 585.576 874.358 586.968C873.686 588.336 872.714 589.392 871.442 590.136C870.17 590.88 868.706 591.252 867.05 591.252ZM867.05 588.84C868.778 588.84 870.098 588.276 871.01 587.148C871.946 585.996 872.414 584.328 872.414 582.144C872.414 580.008 871.946 578.364 871.01 577.212C870.074 576.036 868.754 575.448 867.05 575.448C865.346 575.448 864.026 576.036 863.09 577.212C862.154 578.364 861.686 580.008 861.686 582.144C861.686 584.304 862.142 585.96 863.054 587.112C863.99 588.264 865.322 588.84 867.05 588.84Z" fill="white"/>
<path d="M895.443 573.468V589.812C895.443 592.428 894.771 594.396 893.427 595.716C892.083 597.06 890.091 597.732 887.451 597.732C884.379 597.732 881.799 596.94 879.711 595.356L880.683 593.196C881.859 593.964 882.963 594.516 883.995 594.852C885.027 595.188 886.179 595.356 887.451 595.356C889.131 595.356 890.403 594.9 891.267 593.988C892.131 593.1 892.563 591.792 892.563 590.064V586.968C892.059 588.096 891.279 588.96 890.223 589.56C889.191 590.16 887.967 590.46 886.551 590.46C885.015 590.46 883.647 590.1 882.447 589.38C881.271 588.66 880.347 587.64 879.675 586.32C879.027 585 878.703 583.476 878.703 581.748C878.703 580.02 879.027 578.496 879.675 577.176C880.347 575.856 881.271 574.836 882.447 574.116C883.647 573.396 885.015 573.036 886.551 573.036C887.943 573.036 889.155 573.336 890.187 573.936C891.219 574.536 891.999 575.388 892.527 576.492V573.468H895.443ZM887.127 588.048C888.807 588.048 890.127 587.496 891.087 586.392C892.047 585.264 892.527 583.716 892.527 581.748C892.527 579.804 892.047 578.28 891.087 577.176C890.151 576.048 888.831 575.484 887.127 575.484C885.423 575.484 884.079 576.048 883.095 577.176C882.135 578.28 881.655 579.804 881.655 581.748C881.655 583.716 882.135 585.264 883.095 586.392C884.079 587.496 885.423 588.048 887.127 588.048Z" fill="white"/>
<path d="M910.777 575.556L908.869 575.736C907.069 575.904 905.761 576.468 904.945 577.428C904.153 578.388 903.757 579.576 903.757 580.992V591H900.841V573.468H903.685V576.528C904.669 574.488 906.601 573.348 909.481 573.108L910.525 573.036L910.777 575.556Z" fill="white"/>
<path d="M927.868 582.684H915.052C915.148 584.724 915.7 586.272 916.708 587.328C917.716 588.36 919.144 588.876 920.992 588.876C923.032 588.876 924.904 588.18 926.608 586.788L927.58 588.912C926.812 589.632 925.828 590.208 924.628 590.64C923.428 591.048 922.204 591.252 920.956 591.252C918.22 591.252 916.06 590.448 914.476 588.84C912.916 587.232 912.136 585.012 912.136 582.18C912.136 580.38 912.484 578.796 913.18 577.428C913.876 576.036 914.848 574.956 916.096 574.188C917.368 573.42 918.808 573.036 920.416 573.036C922.744 573.036 924.568 573.804 925.888 575.34C927.208 576.852 927.868 578.94 927.868 581.604V582.684ZM920.452 575.304C918.916 575.304 917.68 575.784 916.744 576.744C915.832 577.704 915.292 579.06 915.124 580.812H925.312C925.264 579.036 924.82 577.68 923.98 576.744C923.14 575.784 921.964 575.304 920.452 575.304Z" fill="white"/>
<path d="M938.105 591.252C935.153 591.252 932.813 590.496 931.085 588.984L932.057 586.824C932.993 587.568 933.941 588.108 934.901 588.444C935.885 588.756 936.989 588.912 938.213 588.912C939.509 588.912 940.493 588.696 941.165 588.264C941.861 587.808 942.209 587.16 942.209 586.32C942.209 585.624 941.981 585.072 941.525 584.664C941.069 584.256 940.313 583.932 939.257 583.692L936.305 583.008C934.817 582.672 933.677 582.096 932.885 581.28C932.093 580.464 931.697 579.456 931.697 578.256C931.697 576.696 932.309 575.436 933.533 574.476C934.757 573.516 936.389 573.036 938.429 573.036C939.653 573.036 940.817 573.24 941.921 573.648C943.025 574.032 943.949 574.596 944.693 575.34L943.721 577.464C942.113 576.096 940.349 575.412 938.429 575.412C937.205 575.412 936.245 575.652 935.549 576.132C934.877 576.588 934.541 577.236 934.541 578.076C934.541 578.772 934.745 579.336 935.153 579.768C935.585 580.176 936.269 580.488 937.205 580.704L940.193 581.424C941.825 581.808 943.037 582.396 943.829 583.188C944.621 583.956 945.017 584.964 945.017 586.212C945.017 587.748 944.393 588.972 943.145 589.884C941.921 590.796 940.241 591.252 938.105 591.252Z" fill="white"/>
<path d="M955.402 591.252C952.45 591.252 950.11 590.496 948.382 588.984L949.354 586.824C950.29 587.568 951.238 588.108 952.198 588.444C953.182 588.756 954.286 588.912 955.51 588.912C956.806 588.912 957.79 588.696 958.462 588.264C959.158 587.808 959.506 587.16 959.506 586.32C959.506 585.624 959.278 585.072 958.822 584.664C958.366 584.256 957.61 583.932 956.554 583.692L953.602 583.008C952.114 582.672 950.974 582.096 950.182 581.28C949.39 580.464 948.994 579.456 948.994 578.256C948.994 576.696 949.606 575.436 950.83 574.476C952.054 573.516 953.686 573.036 955.726 573.036C956.95 573.036 958.114 573.24 959.218 573.648C960.322 574.032 961.246 574.596 961.99 575.34L961.018 577.464C959.41 576.096 957.646 575.412 955.726 575.412C954.502 575.412 953.542 575.652 952.846 576.132C952.174 576.588 951.838 577.236 951.838 578.076C951.838 578.772 952.042 579.336 952.45 579.768C952.882 580.176 953.566 580.488 954.502 580.704L957.49 581.424C959.122 581.808 960.334 582.396 961.126 583.188C961.918 583.956 962.314 584.964 962.314 586.212C962.314 587.748 961.69 588.972 960.442 589.884C959.218 590.796 957.538 591.252 955.402 591.252Z" fill="white"/>
<path d="M666.36 422.48V524H648.216V479.936H596.232V524H577.944V422.48H596.232V464.96H648.216V422.48H666.36Z" fill="white"/>
<path d="M748.386 492.032H700.434C701.01 498.56 702.978 503.408 706.338 506.576C709.698 509.744 714.498 511.328 720.738 511.328C728.514 511.328 735.618 508.832 742.05 503.84L747.234 516.224C743.97 518.912 739.842 521.072 734.85 522.704C729.954 524.336 725.01 525.152 720.018 525.152C708.498 525.152 699.378 521.888 692.658 515.36C686.034 508.832 682.722 499.904 682.722 488.576C682.722 481.376 684.162 474.992 687.042 469.424C689.922 463.856 693.954 459.536 699.138 456.464C704.418 453.392 710.37 451.856 716.994 451.856C726.69 451.856 734.322 454.976 739.89 461.216C745.554 467.456 748.386 476.048 748.386 486.992V492.032ZM717.426 464.528C712.626 464.528 708.738 466.064 705.762 469.136C702.882 472.208 701.106 476.624 700.434 482.384H732.978C732.786 476.528 731.346 472.112 728.658 469.136C725.97 466.064 722.226 464.528 717.426 464.528Z" fill="white"/>
<path d="M829.089 453.728L786.753 549.92H768.609L781.425 521.264L752.049 453.728H771.057L790.929 503.408L811.377 453.728H829.089Z" fill="white"/>
<path d="M835.19 422.336L857.366 422.48L851.75 493.472H840.806L835.19 422.336ZM856.358 504.128V524H836.198V504.128H856.358Z" fill="white"/>
</svg>
