<svg xmlns="http://www.w3.org/2000/svg" viewBox="0 0 669 660"><defs><style>.cls-1{fill:#fff;}</style></defs><g id="Layer_5" data-name="Layer 5"><path class="cls-1" d="M237.43,184.85s-67.77-119.55-130,34.34c-50.1,123.88,13,233.23,35.94,257.06,25,26,98.14,51.47,105,24,2-8-9-61-15.91-78.57-2.38-6.05-7.09-24.43-7.09-24.43s-9.44-21.71-21.62-15.94c-15.19,7.2-67.39,48.28-74.79-1.77-5.44-36.85-11.69-120.62,25.67-156.8,40.4-39.13,41.88,9.94,69.69,1.9C247.13,218,258.05,211.73,237.43,184.85Z"/><path class="cls-1" d="M154.49,261.74s43-57.05,89.74-15.07,3.25,112.68-40.29,117.56c0,0-23.81,1.92-49.45-28.22s22-22.6,22-22.6,11,24.75,30.22,7.53,21.06-35.52-2.75-40.9-26.56,24.76-26.56,24.76-5.49,10.76,12.82,26.9-26.55,1.08-26.55,1.08-15.57,2.15-22-20.45S154.49,261.74,154.49,261.74Z"/><path class="cls-1" d="M476.36,349.25c-3-27-1.43,3.07-2.7-38s10.7-161,10.7-161,7.65-20.9,1-34c-3.41-6.71-13.54-11.1-24-14,0,0-21.38-15.17-32,39S420.22,192,420.22,192s-3.09,13.5-4.86,18.21c-1,2.73,6,0-3,1-3.15.35-2.63-18.27-3-35,0-2-1.53-20.47-.74-32.14,1.35-20,1.71-31.3,3.73-40.94,4.37-20.93-2.58-24-2.58-24a228.76,228.76,0,0,0-26.89-6.48s-13.94-3.25-16.94-3.3S343.87,73,351.79,134.1c2.69,20.84.92,50.47,5.42,89.11,7.8,67.15-.17,178-.17,178s-11.68,120.07,3.32,156.07c0,0,28,1,51-20,9.21-8.41,4-12,3-26-1.48-21-2.8-55.75-7-88.31-6.07-47.16-12.46-105.12-12.46-105.12s-5.27-41.1,10,3.18c5.36,15.59,4.51,35.25,10.51,35.25,10,0,5.63-31.12,15-58,13.46-38.56,6,82,6,82s4.82,89.15,6,114c.95,20,14.77,8.45,25,4,9-3.89,14.22-61.65,17-71C489.39,410.33,479.39,376.54,476.36,349.25Z"/><path class="cls-1" d="M578,351.15s-37.2,158.71-89.63,128.1c-6-3.5,4.91-40.8,6-57,1-14.94-4.1-37.79-4.1-37.79s-1.68-25.18-2-27.89c-.41-3.61.06,5.85-.29,2.2-8.7-92.31.84-196.74,24.47-194.56,0,0,18.25-10.82,46.71,44.31s-12.12,45.77-12.12,45.77-16.87-52.56-28.13-17.42-7.94,69,12.76,76.78,16.8-42.73,16.8-42.73,1.74-21.26-17.23-50.3,21.3-4.91,21.3-4.91,12.1-5.81,23,36.91S578,351.15,578,351.15Z"/><path class="cls-1" d="M336.36,126.25s-5-51-43-42-64,26-64,26-8,25,3,42,74,109,77,149c2.93,39-6,93-16,65s0-41-9-53-37,52-42,65,9,69,9,69,8.42,60.67,25,95c5.42,11.22,14.75,12.66,23.71,15.81,7.55,2.64,17.7,7.57,23.29,2.19,26-25,27-252,18-321-5.69-43.64-70-85-44-82C330.13,161,346.36,212.25,336.36,126.25Z"/></g></svg>