<svg width="105" height="105" viewBox="0 0 105 105" fill="none" xmlns="http://www.w3.org/2000/svg">
<path d="M31.7311 24.584C31.7311 24.584 17.2836 -0.861898 4.01705 31.8932C-6.66354 58.2607 6.78846 81.5355 11.6789 86.6077C17.0086 92.1417 32.6009 97.5629 34.0634 91.716C34.4898 90.0132 32.1447 78.7323 30.6716 74.9926C30.1642 73.7049 29.1601 69.7927 29.1601 69.7927C29.1601 69.7927 27.1477 65.1718 24.5511 66.4C21.3128 67.9325 10.1845 76.6762 8.60693 66.0232C7.4472 58.1798 6.11479 40.3496 14.0794 32.6488C22.6921 24.3201 23.0076 34.7645 28.9363 33.0532C33.799 31.6399 36.127 30.3053 31.7311 24.584Z" fill="white"/>
<path d="M14.0496 40.9498C14.0496 40.9498 23.2165 28.8069 33.1808 37.7422C43.1451 46.6775 33.8737 61.7258 24.5916 62.7645C24.5916 62.7645 19.5157 63.1732 14.0496 56.758C8.58351 50.3427 18.7397 51.9476 18.7397 51.9476C18.7397 51.9476 21.0847 57.2156 25.1821 53.5503C29.2795 49.8851 29.6718 45.99 24.5959 44.8449C19.5199 43.6998 18.9337 50.115 18.9337 50.115C18.9337 50.115 17.7633 52.4052 21.6667 55.8406C25.5701 59.2759 16.0066 56.0705 16.0066 56.0705C16.0066 56.0705 12.6873 56.5281 11.3165 51.7177C9.94576 46.9074 14.0496 40.9498 14.0496 40.9498Z" fill="white"/>
<path d="M82.6675 59.576C82.0279 53.8292 82.3626 60.2295 82.0919 51.4879C81.8212 42.7462 84.373 17.2194 84.373 17.2194C84.373 17.2194 86.0038 12.7709 84.5862 9.98264C83.8592 8.55443 81.6996 7.62003 79.4697 7.00278C79.4697 7.00278 74.9118 3.77389 72.6478 15.3038C70.3838 26.8338 70.6993 26.1058 70.6993 26.1058C70.6993 26.1058 70.0405 28.9793 69.6632 29.9818C69.45 30.5628 70.9423 29.9818 69.0236 30.1946C68.3521 30.2691 68.463 26.3059 68.3841 22.745C68.3841 22.3193 68.0579 18.388 68.2263 15.9041C68.5141 11.6471 68.5909 9.24193 69.0215 7.19008C69.9531 2.73519 68.4715 2.08175 68.4715 2.08175C66.5903 1.50698 64.6759 1.04638 62.7389 0.7025C62.7389 0.7025 59.7671 0.0107456 59.1276 0.000103261C58.488 -0.0105391 54.4226 0.776998 56.111 13.782C56.6845 18.2177 56.3071 24.5244 57.2665 32.7488C58.9293 47.0415 57.2302 70.6356 57.2302 70.6356C57.2302 70.6356 54.7402 96.1922 57.938 103.855C57.938 103.855 63.9072 104.068 68.8105 99.5977C70.7739 97.8077 69.6632 97.0435 69.45 94.0637C69.1345 89.5939 68.8531 82.1975 67.9577 75.2671C66.6637 65.2293 65.3014 52.8926 65.3014 52.8926C65.3014 52.8926 64.1779 44.1446 67.4333 53.5695C68.576 56.8878 68.3947 61.0724 69.6739 61.0724C71.8057 61.0724 70.8741 54.4486 72.8716 48.7272C75.7411 40.5198 74.1507 66.1807 74.1507 66.1807C74.1507 66.1807 75.1783 85.156 75.4299 90.4453C75.6324 94.7022 78.5786 92.2438 80.7595 91.2967C82.6782 90.4687 83.791 78.1746 84.3836 76.1845C85.4453 72.5768 83.3134 65.3847 82.6675 59.576Z" fill="white"/>
<path d="M104.336 59.9805C104.336 59.9805 96.4052 93.7615 85.2279 87.2462C83.9488 86.5012 86.2746 78.562 86.507 75.1139C86.7202 71.934 85.6329 67.0704 85.6329 67.0704C85.6329 67.0704 85.2748 61.7109 85.2066 61.1341C85.1192 60.3657 85.2194 62.3793 85.1448 61.6024C83.29 41.9544 85.3238 19.7268 90.3614 20.1908C90.3614 20.1908 94.252 17.8878 100.319 29.6221C106.387 41.3563 97.7355 39.3641 97.7355 39.3641C97.7355 39.3641 94.139 28.1768 91.7386 35.6563C89.3381 43.1357 90.0459 50.3427 94.4588 51.9987C98.8718 53.6546 98.0403 42.9037 98.0403 42.9037C98.0403 42.9037 98.4113 38.3786 94.3671 32.1975C90.323 26.0164 98.908 31.1524 98.908 31.1524C98.908 31.1524 101.488 29.9158 103.811 39.0086C106.135 48.1015 104.336 59.9805 104.336 59.9805Z" fill="white"/>
<path d="M52.8215 12.1111C52.8215 12.1111 51.7556 1.25588 43.6546 3.17151C35.5535 5.08713 30.0107 8.70554 30.0107 8.70554C30.0107 8.70554 28.3052 14.0267 30.6503 17.6451C32.9953 21.2635 46.426 40.8455 47.0655 49.3594C47.6902 57.6604 45.7864 69.1542 43.6546 63.1944C41.5227 57.2347 43.6546 54.4677 41.7359 51.9135C39.8172 49.3594 33.848 62.9816 32.7821 65.7486C31.7162 68.5156 34.7008 80.4351 34.7008 80.4351C34.7008 80.4351 36.4958 93.3485 40.0304 100.656C41.1859 103.044 43.1749 103.35 45.085 104.021C46.6946 104.583 48.8584 105.632 50.0501 104.487C55.5929 99.1656 55.8061 50.8493 53.8874 36.1628C52.6744 26.8742 38.9645 18.0708 44.5073 18.7094C51.4934 19.5075 54.9534 30.416 52.8215 12.1111Z" fill="white"/>
</svg>
