<?xml version="1.0" encoding="UTF-8" standalone="no"?><!DOCTYPE svg PUBLIC "-//W3C//DTD SVG 1.1//EN" "http://www.w3.org/Graphics/SVG/1.1/DTD/svg11.dtd"><svg width="100%" height="100%" viewBox="0 0 40 40" version="1.1" xmlns="http://www.w3.org/2000/svg" xmlns:xlink="http://www.w3.org/1999/xlink" xml:space="preserve" xmlns:serif="http://www.serif.com/" style="fill-rule:evenodd;clip-rule:evenodd;stroke-linejoin:round;stroke-miterlimit:2;"><path d="M11.176,10.987c3.277,-0.167 9.032,-0.24 9.046,-0.239c-0,0 5.473,0.066 8.611,0.234l0.046,0.003l0.047,0.003l0.033,0.003l0.042,0.004l0.042,0.005l0.021,0.002l0.021,0.003l0.025,0.003l0.016,0.002l0.029,0.005l0.046,0.007l0.049,0.008l0.041,0.008l0.044,0.009l0.045,0.01l0.044,0.01l0.028,0.006l0.016,0.004l0.024,0.007l0.02,0.005l0.043,0.012l0.044,0.012l0.043,0.013l0.043,0.014l0.042,0.014l0.043,0.015l0.042,0.015l0.042,0.016l0.041,0.016l0.042,0.017l0.041,0.017l0.04,0.018l0.041,0.019l0.016,0.007c0.043,0.021 0.086,0.042 0.128,0.064l0.015,0.008l0.039,0.021l0.039,0.021l0.038,0.022l0.038,0.023l0.038,0.023l0.037,0.023l0.038,0.024l0.036,0.024l0.037,0.025l0.036,0.026l0.036,0.026l0.035,0.026l0.035,0.027l0.035,0.027l0.035,0.027l0.034,0.028l0.037,0.032l0.032,0.028l0.031,0.027l0.032,0.03l0.024,0.022l0.029,0.028l0.029,0.028l0.028,0.028l0.028,0.029l0.028,0.029l0.023,0.024c0.06,0.065 0.117,0.131 0.172,0.2l0,0.001c0.482,0.605 0.77,1.378 0.77,2.218l-0,11.188c-0,1.936 -1.528,3.581 -3.412,3.581c-4.221,-0 -13.089,-0 -17.31,-0c-1.884,-0 -3.412,-1.645 -3.412,-3.581c0,-3.029 0,-8.21 0,-11.183c0,-0.849 0.295,-1.63 0.786,-2.239l0.022,-0.026l0.026,-0.031l0.026,-0.03l0.026,-0.031l0.027,-0.03l0.027,-0.029l0.028,-0.03l0.026,-0.027c0.011,-0.011 0.021,-0.022 0.032,-0.032l0.031,-0.032l0.032,-0.031l0.033,-0.03l0.032,-0.03l0.034,-0.03l0.033,-0.029l0.013,-0.011c0.049,-0.042 0.1,-0.083 0.152,-0.122l0.008,-0.007l0.036,-0.027l0.036,-0.026l0.037,-0.026l0.036,-0.025l0.014,-0.009c0.055,-0.036 0.11,-0.071 0.166,-0.104l0.009,-0.005l0.039,-0.023l0.039,-0.021l0.039,-0.022l0.04,-0.02l0.04,-0.021l0.014,-0.007c0.044,-0.022 0.089,-0.042 0.135,-0.062l0.013,-0.006l0.042,-0.018l0.041,-0.017l0.042,-0.016l0.043,-0.016l0.042,-0.016l0.043,-0.015l0.02,-0.006c0.029,-0.01 0.057,-0.019 0.086,-0.028l0.023,-0.007l0.044,-0.012l0.029,-0.008l0.015,-0.004l0.025,-0.007l0.019,-0.005l0.021,-0.005l0.024,-0.005l0.016,-0.004l0.028,-0.007l0.045,-0.009l0.047,-0.01l0.044,-0.008l0.045,-0.007l0.036,-0.006l0.041,-0.006l0.042,-0.006l0.042,-0.005l0.023,-0.002l0.019,-0.002l0.042,-0.004l0.042,-0.004l0.04,-0.003c0.015,-0 0.03,-0.001 0.045,-0.002Zm18.725,3.757l-9.283,6.806c-0.376,0.275 -0.881,0.275 -1.257,-0l-9.262,-6.787l-0,10.908c-0,0.708 0.558,1.281 1.246,1.281c4.221,0 13.089,0 17.31,0c0.688,0 1.246,-0.573 1.246,-1.281l0,-10.927Zm-18.221,-1.555l8.309,6.088l8.315,-6.096l-8.04,-0.43l-8.584,0.438Z" style="fill:#fff;"/></svg>