<?xml version="1.0" encoding="UTF-8" standalone="no"?><!DOCTYPE svg PUBLIC "-//W3C//DTD SVG 1.1//EN" "http://www.w3.org/Graphics/SVG/1.1/DTD/svg11.dtd"><svg width="100%" height="100%" viewBox="0 0 40 40" version="1.1" xmlns="http://www.w3.org/2000/svg" xmlns:xlink="http://www.w3.org/1999/xlink" xml:space="preserve" xmlns:serif="http://www.serif.com/" style="fill-rule:evenodd;clip-rule:evenodd;stroke-linejoin:round;stroke-miterlimit:2;"><path d="M8,10.687l0,0.509c0,0 0.136,-0.085 1.273,0.306c1.137,0.39 2.851,2.359 2.851,2.359l-0,10.25c-0,-0 -0.004,1.68 -0.412,2.478c-0.407,0.798 -1.51,1.748 -2.647,2.087c0.034,0.017 0.013,0.492 0.013,0.492l6.636,0l0,-0.489c0,0 -1.379,-0.434 -2.172,-1.411c-0.793,-0.978 -0.847,-2.173 -0.847,-3.15l-0,-9.76l15.778,14.955l0.509,-0l-0,-13.589c-0,-1.955 0.479,-3.557 3.004,-4.521c0.014,-0.204 0.014,-0.489 0.014,-0.489l-6.598,0l0,0.448c0,0 3,0.538 3,4.507l0,9.088c0,-0 -13.596,-13.043 -13.948,-13.381c-0.353,-0.338 -0.684,-0.667 -1.768,-0.667c-1.085,-0 -4.686,-0.022 -4.686,-0.022Z" style="fill:#fff;"/></svg>