<svg width="40" height="40" xmlns="http://www.w3.org/2000/svg">
 <title/>

 <g>
  <title>background</title>
  <rect fill="none" id="canvas_background" height="402" width="582" y="-1" x="-1"/>
 </g>
 <g>
  <title>Layer 1</title>
  <path fill="#ffffff" id="svg_1" d="m32,20.139999a12,12 0 1 0 -13.879999,11.860001l0,-8.4l-3.000001,0l0,-3.460001l3.000001,0l0,-2.65c0,-3 1.799999,-4.67 4.539999,-4.67a18,18 0 0 1 2.68,0.240001l0,2.999999l-1.51,0a1.73,1.73 0 0 0 -1.950001,1.880001l0,2.25l3.320002,0l-0.530001,3.459999l-2.790001,0l0,8.35a12,12 0 0 0 10.120001,-11.860001z"/>
 </g>
</svg>