<svg width="40" height="40" xmlns="http://www.w3.org/2000/svg">

 <title/>
 <g>
  <title>background</title>
  <rect fill="none" id="canvas_background" height="402" width="582" y="-1" x="-1"/>
 </g>
 <g>
  <title>Layer 1</title>
  <path fill="#ffffff" fill-rule="evenodd" id="svg_1" d="m20.058004,8a12,12 0 0 0 -3.790001,23.389999c0.6,0.110001 0.820002,-0.26 0.820002,-0.58s0,-1 0,-2c-3.340001,0.720001 -4.000001,-1.609999 -4.000001,-1.609999a3.21,3.21 0 0 0 -1.33,-1.76c-1.09,-0.74 0.08,-0.730001 0.08,-0.730001a2.55,2.55 0 0 1 1.84,1.240002a2.56,2.56 0 0 0 3.490001,1a2.59,2.59 0 0 1 0.76,-1.610001c-2.660001,-0.299999 -5.470001,-1.33 -5.470001,-5.93a4.63,4.63 0 0 1 1.240001,-3.219999a4.28,4.28 0 0 1 0.059999,-3.190001s1,-0.33 3.3,1.23a11.18,11.18 0 0 1 6,0c2.299999,-1.58 3.299999,-1.23 3.299999,-1.23a4.28,4.28 0 0 1 0.120001,3.17a4.63,4.63 0 0 1 1.23,3.219999c0,4.610001 -2.799999,5.630001 -5.469999,5.92a2.88,2.88 0 0 1 0.82,2.210001c0,1.6 0,2.889999 0,3.289999s0.209999,0.690001 0.82,0.58a12,12 0 0 0 -3.82,-23.389999z" class="cls-1"/>
 </g>
</svg>