<?xml version="1.0" encoding="UTF-8" standalone="no"?><!DOCTYPE svg PUBLIC "-//W3C//DTD SVG 1.1//EN" "http://www.w3.org/Graphics/SVG/1.1/DTD/svg11.dtd"><svg width="100%" height="100%" viewBox="0 0 40 40" version="1.1" xmlns="http://www.w3.org/2000/svg" xmlns:xlink="http://www.w3.org/1999/xlink" xml:space="preserve" xmlns:serif="http://www.serif.com/" style="fill-rule:evenodd;clip-rule:evenodd;stroke-linejoin:round;stroke-miterlimit:2;"><path d="M16.939,31.794c-0.064,0 -0.128,-0.008 -0.19,-0.026c-5.048,-1.42 -8.753,-6.06 -8.753,-11.558c0,-6.625 5.379,-12.004 12.004,-12.004c6.625,-0 12.004,5.379 12.004,12.004c-0,5.498 -3.705,10.138 -8.753,11.558c-0.062,0.017 -0.126,0.026 -0.19,0.026c-0.136,0 -0.402,0 -0.664,0c-0.39,0 -0.706,-0.316 -0.706,-0.706c-0,-1.003 -0,-2.72 -0,-2.72c1.971,-0.463 3.144,-1.892 3.659,-3.16c0.15,-0.369 -0.028,-0.791 -0.397,-0.94c-0.369,-0.15 -0.791,0.028 -0.941,0.397c-0.457,1.127 -1.634,2.413 -3.693,2.413c-1.08,-0 -2.153,-0.431 -2.871,-1.07c-0.417,-0.371 -0.718,-0.809 -0.774,-1.281c-0.047,-0.396 -0.406,-0.679 -0.802,-0.632c-0.395,0.047 -0.679,0.406 -0.632,0.801c0.094,0.795 0.546,1.566 1.248,2.19c0.651,0.58 1.519,1.034 2.46,1.266l-0,2.736c-0,0.187 -0.075,0.367 -0.207,0.499c-0.133,0.133 -0.312,0.207 -0.5,0.207c-0.483,0 -1.076,0 -1.302,0Zm6.269,-8.47l0.03,-6.598c0.007,-1.602 -1.288,-2.909 -2.891,-2.916c-1.602,-0.008 -2.909,1.288 -2.916,2.89l-0.03,6.598c-0.007,1.602 1.288,2.909 2.89,2.916c1.603,0.007 2.91,-1.288 2.917,-2.89Zm-9.285,-1.367c-1.108,-0.833 -1.559,-2.222 -1.509,-3.551c0.05,-1.313 0.58,-2.596 1.563,-3.223c0.387,-0.248 0.501,-0.763 0.254,-1.151c-0.248,-0.388 -0.764,-0.501 -1.151,-0.254c-1.407,0.898 -2.26,2.687 -2.331,4.565c-0.07,1.861 0.621,3.78 2.172,4.946c0.368,0.277 0.891,0.203 1.167,-0.165c0.277,-0.368 0.202,-0.89 -0.165,-1.167Zm13.282,1.286c1.551,-1.167 2.242,-3.086 2.172,-4.947c-0.071,-1.878 -0.924,-3.666 -2.331,-4.564c-0.388,-0.248 -0.903,-0.134 -1.151,0.253c-0.247,0.388 -0.133,0.904 0.254,1.151c0.983,0.628 1.513,1.911 1.562,3.223c0.051,1.329 -0.4,2.719 -1.508,3.552c-0.368,0.276 -0.442,0.799 -0.165,1.166c0.276,0.368 0.799,0.442 1.167,0.166Zm-11.464,-3.168c-0.489,-0.368 -0.677,-0.986 -0.655,-1.573c0.021,-0.572 0.235,-1.139 0.664,-1.413c0.336,-0.214 0.434,-0.661 0.22,-0.997c-0.214,-0.335 -0.661,-0.434 -0.997,-0.22c-0.795,0.508 -1.29,1.514 -1.33,2.576c-0.039,1.047 0.357,2.124 1.231,2.781c0.318,0.239 0.771,0.175 1.01,-0.144c0.24,-0.318 0.175,-0.771 -0.143,-1.01Zm9.821,1.107c0.873,-0.656 1.269,-1.733 1.23,-2.781c-0.04,-1.062 -0.534,-2.067 -1.33,-2.575c-0.336,-0.215 -0.783,-0.116 -0.997,0.22c-0.214,0.336 -0.116,0.782 0.22,0.997c0.429,0.273 0.643,0.841 0.664,1.413c0.022,0.587 -0.166,1.204 -0.655,1.572c-0.318,0.24 -0.382,0.692 -0.143,1.011c0.239,0.318 0.692,0.382 1.011,0.143Z" style="fill:#ebebeb;"/></svg>