<?xml version="1.0" encoding="UTF-8" standalone="no"?><!DOCTYPE svg PUBLIC "-//W3C//DTD SVG 1.1//EN" "http://www.w3.org/Graphics/SVG/1.1/DTD/svg11.dtd"><svg width="100%" height="100%" viewBox="0 0 40 40" version="1.1" xmlns="http://www.w3.org/2000/svg" xmlns:xlink="http://www.w3.org/1999/xlink" xml:space="preserve" xmlns:serif="http://www.serif.com/" style="fill-rule:evenodd;clip-rule:evenodd;stroke-linejoin:round;stroke-miterlimit:2;"><g><path d="M16.956,31.584c-0.066,0 -0.131,-0.008 -0.195,-0.026c-5.052,-1.416 -8.761,-6.057 -8.761,-11.558c0,-6.623 5.377,-12 12,-12c6.623,0 12,5.377 12,12c0,5.501 -3.709,10.142 -8.761,11.557c-0.064,0.018 -0.129,0.027 -0.195,0.027c-0.131,0 -0.378,0 -0.626,0c-0.402,0 -0.727,-0.326 -0.727,-0.727c-0,-1.006 -0,-2.699 -0,-2.699c1.971,-0.463 3.144,-1.892 3.659,-3.16c0.15,-0.369 -0.028,-0.79 -0.397,-0.94c-0.369,-0.15 -0.791,0.028 -0.941,0.397c-0.457,1.127 -1.634,2.413 -3.693,2.413c-1.08,0 -2.153,-0.43 -2.871,-1.07c-0.417,-0.371 -0.718,-0.809 -0.774,-1.281c-0.047,-0.396 -0.406,-0.679 -0.802,-0.632c-0.395,0.047 -0.679,0.406 -0.632,0.802c0.094,0.794 0.546,1.565 1.248,2.19c0.651,0.579 1.519,1.033 2.46,1.265l-0,2.715c-0,0.402 -0.326,0.727 -0.728,0.727c-0.473,0 -1.041,0 -1.264,0Zm6.252,-8.47l0.03,-6.598c0.007,-1.602 -1.288,-2.909 -2.891,-2.916c-1.602,-0.007 -2.909,1.288 -2.916,2.89l-0.03,6.598c-0.007,1.602 1.288,2.909 2.89,2.916c1.603,0.008 2.91,-1.288 2.917,-2.89Z" style="fill:#fff;"/></g></svg>