<svg width="300" height="300" viewBox="0 0 300 300" fill="none" xmlns="http://www.w3.org/2000/svg">
<g clip-path="url(#clip0)">
<rect width="300" height="300" rx="20" fill="#272D53"/>
<path d="M58.9299 145.746C56.3936 144.318 50.3295 144.338 46.8352 145.728L43.504 146.764L39.2737 132.35L71.6801 127.04C74.6505 126.373 80.6151 123.442 80.5719 126.318C80.5566 127.34 78.0968 128.178 76.7513 128.415C73.0626 129.608 75.4209 130.267 76.4873 130.223C79.3416 129.396 85.1141 128.221 85.3695 130.14C85.6249 132.06 83.8072 131.671 78.5753 133.117C74.4066 134.732 78.9417 135.002 80.4473 134.624C82.8624 134.13 89.8191 133.481 88.8399 135.602C88.228 136.928 82.7705 137.626 79.9194 138.241C77.6385 138.732 77.5386 139.072 77.877 140.194C79.6114 140.351 87.0056 139.477 86.9753 141.497C86.9561 142.775 86.2218 144.366 75.7964 144.702C67.456 144.971 69.3597 147.522 71.3541 148.764C77.6229 153.973 73.9902 154.591 71.3902 154.249C68.5583 153.586 61.4662 147.174 58.9299 145.746Z" fill="#E34E49" stroke="white"/>
<path d="M176.533 123.5L117.533 127.356V223L172.218 221.322L176.533 123.5Z" fill="#03518C"/>
<path d="M236.533 114L176.533 120L170.533 221L234.754 217.037L236.533 114Z" fill="#EF444F"/>
<path d="M117.533 146L61.5326 156.043L64.9265 219.652L117.533 223V146Z" fill="#EF444F"/>
<path d="M177.875 137.629L179.533 34L116.533 72.4429L117.19 147.657L138.085 151L141.401 134.286L177.875 137.629Z" fill="#04A1D9"/>
<path d="M236.533 80.9677L178.921 34L175.533 138H212.81L216.199 124.581H236.533V80.9677Z" fill="#02528C"/>
<path d="M115.649 73.4839L63.5326 85L105.562 50.4516L179.533 34L115.649 73.4839Z" fill="#02528C"/>
<path d="M142.354 110.027V88.5946L164.175 82V108.378L142.354 110.027Z" fill="#FFD286"/>
<path d="M196.068 185.865V159.486L214.533 151.243V185.865H196.068Z" fill="#FFD286"/>
<path d="M86.9612 192.459V179.27H97.0326V192.459H86.9612Z" fill="#FFD286"/>
<path d="M75.2112 204L73.5326 167.73H83.604V204H75.2112Z" fill="#FFD286"/>
<path d="M68.181 210.294C66.9383 212.757 61.9185 215.767 58.2033 216.347L54.8339 217.141L59.9407 231.331L89.8734 219.606C92.7243 218.682 99.3989 218.16 97.6476 215.772C97.0249 214.923 94.4935 215.449 93.2409 215.922C89.4827 216.764 91.0369 215.034 91.9438 214.539C94.7948 213.807 100.263 211.91 99.3289 210.174C98.3945 208.438 97.1251 209.671 91.9415 211.071C87.5352 211.799 91.1195 209.309 92.5881 208.874C94.8774 208.082 101.01 205.154 98.9358 203.865C97.6392 203.059 92.7153 205.198 89.9941 206.107C87.8171 206.833 87.5318 206.598 87.1422 205.49C88.4809 204.492 95.109 201.534 93.8783 199.856C93.0999 198.794 91.5439 197.828 82.7336 202.75C75.6853 206.688 75.7351 203.6 76.641 201.564C78.7098 194.069 75.3408 195.364 73.3976 196.949C71.4547 198.918 69.4236 207.832 68.181 210.294Z" fill="#E34E49" stroke="white"/>
<path d="M-37.9433 133.795L49.5534 128.349L51.8783 146.095L1.65011 161.701C-56.5192 176.542 -96.6821 167.563 -109.492 161.219C-128.985 153.744 -166.098 133.135 -158.61 110.492C-149.249 82.1896 -110.431 104.181 -92.4338 116.865C-78.0362 127.013 -50.1078 132.38 -37.9433 133.795Z" fill="#02528C"/>
<path d="M-25.3019 234.268L59.8859 213.571L65.2852 230.635L18.5697 254.802C-36.0979 279.609 -77.2128 277.809 -90.9368 273.808C-111.438 269.865 -151.588 256.079 -148.184 232.475C-143.93 202.97 -101.858 217.817 -81.9162 227.151C-65.9628 234.618 -37.5261 235.007 -25.3019 234.268Z" fill="#04A1D9"/>
<path d="M136.356 180.253L139.99 190.778L164.033 182.5L158.818 167.384C157.101 163.867 159.975 160.329 161.626 159L156.535 160.753C155.403 161.142 155.323 166.115 155.424 168.553C154.464 167.97 154.822 163.435 155.12 161.24L151.726 162.409C151.047 162.642 150.514 167.771 150.332 170.306C149.458 169.237 149.955 164.92 150.312 162.895L147.484 163.869C146.578 164.181 147.308 168.874 147.787 171.182L145.504 164.551L143.806 165.135L146.09 171.766L142.392 165.622L140.695 166.207L140.998 173.519L138.715 166.888L134.755 168.252L137.038 174.883C134.814 170.628 131.612 173.518 130.289 175.495C132.044 173.978 135.065 178.035 136.356 180.253Z" fill="#F2F2F2"/>
<mask id="mask0" mask-type="alpha" maskUnits="userSpaceOnUse" x="128" y="159" width="47" height="51">
<path d="M136.356 180.253L145.84 207.797L169.882 199.52L158.818 167.384C157.101 163.867 159.975 160.329 161.626 159L156.535 160.753C155.403 161.142 155.323 166.115 155.424 168.553C154.464 167.97 154.822 163.435 155.12 161.24L151.726 162.409C151.047 162.642 150.514 167.771 150.332 170.306C149.458 169.237 149.955 164.92 150.312 162.895L147.484 163.869C146.578 164.181 147.308 168.874 147.787 171.182L145.504 164.551L143.806 165.135L146.09 171.766L142.392 165.622L140.695 166.207L140.998 173.519L138.715 166.888L134.755 168.252L137.038 174.883C134.814 170.628 131.612 173.518 130.289 175.495C132.044 173.978 135.065 178.035 136.356 180.253Z" fill="#F2F2F2"/>
</mask>
<g mask="url(#mask0)">
<path d="M163.05 153.945L162.358 163.883C159.184 162.266 149.533 166.5 148.533 168.5C147.733 170.1 139.199 171.5 135.033 172L134.025 179.914L122.114 164.616L163.05 153.945Z" fill="#002F52"/>
</g>
<path d="M157.25 217.365L149.883 195.969L142.134 198.637L135.533 179.464L160.116 171L166.718 190.173L160.037 192.473L167.404 213.869C167.921 215.66 167.993 219.572 164.145 220.897C160.297 222.222 157.945 219.095 157.25 217.365Z" fill="#FFD286"/>
<path d="M174.879 218.676C176.473 221.685 182.074 225.783 186.019 226.9L189.63 228.226L186.019 244.1L153.377 226.9C150.292 225.486 143.266 224.082 144.804 221.517C145.351 220.605 148.055 221.519 149.419 222.218C153.441 223.645 151.611 221.45 150.605 220.766C147.542 219.575 141.609 216.718 142.373 214.813C143.138 212.908 144.611 214.492 150.188 216.738C154.872 218.11 150.832 214.789 149.247 214.108C146.764 212.914 140.012 208.78 142.02 207.53C143.275 206.749 148.67 209.823 151.619 211.203C153.978 212.308 154.247 212.069 154.519 210.827C153.002 209.509 145.73 205.279 146.811 203.477C147.495 202.337 149.001 201.4 158.786 208.172C166.615 213.589 166.19 209.996 164.998 207.522C161.934 198.568 165.605 200.475 167.823 202.548C170.088 205.069 173.285 215.666 174.879 218.676Z" fill="#E34E49" stroke="white"/>
<path d="M262.468 240.986L182.357 224.178L177.41 241.396L221.431 263.366C272.922 285.619 311.503 282.001 324.357 277.411C343.573 272.577 381.165 257.077 377.803 233.744C373.601 204.577 334.214 221.218 315.561 231.391C300.638 239.529 273.948 241.179 262.468 240.986Z" fill="#82B479"/>
<path d="M117.533 72.5L61.5326 86.62V158L117.533 148.04V72.5Z" fill="#FFD286"/>
</g>
<defs>
<clipPath id="clip0">
<rect width="300" height="300" rx="20" fill="white"/>
</clipPath>
</defs>
</svg>
