<svg width="300" height="300" viewBox="0 0 300 300" fill="none" xmlns="http://www.w3.org/2000/svg">
<g clip-path="url(#clip0)">
<rect width="300" height="300" rx="20" fill="#272D53"/>
<path d="M130.835 107.319C135.034 101.616 135.165 84.5157 134.707 76.6785L134.806 69.2056L176.982 61.2938L167.144 134.022C166.577 140.687 168.398 154.062 163.077 153.982C161.185 153.954 161.123 148.436 161.501 145.416C161.527 137.142 158.866 142.441 158.299 144.835C158.101 151.238 156.774 164.192 153.05 164.777C149.325 165.362 151.153 161.278 151.647 149.54C151.18 140.19 147.919 150.374 147.705 153.752C147.154 159.172 144.131 174.787 140.78 172.602C138.687 171.236 140.708 158.987 141.3 152.589C141.774 147.471 141.202 147.249 138.911 148.015C137.564 151.91 134.691 168.507 130.952 168.451C128.587 168.415 126.074 166.776 131.792 143.371C136.366 124.646 130.463 128.936 126.94 133.421C113.439 147.528 114.499 139.375 116.717 133.535C119.674 127.173 126.637 113.022 130.835 107.319Z" fill="#E34E49" stroke="white"/>
<path d="M132.409 81.1348L116.915 0.535936L177.348 -22C178.599 4.2518 180.899 59.3725 180.09 69.8408C179.281 80.3091 176.33 82.8921 174.956 82.8751C168.029 84.002 151.943 86.3736 143.011 86.845C134.079 87.3164 132.221 83.2346 132.409 81.1348Z" fill="#A6ADD8"/>
<path d="M160 132C165.6 132.4 177 123.167 182 118.5L187 114.5L210.5 145.5L158 177C153.333 180.167 145.25 189 143 184.5C142.2 182.9 145.833 179.833 148 178.5C153.5 174 148.833 174.667 147 175.5C142.667 178.833 133.5 184.8 131.5 182C129.5 179.2 133 178.5 141 172.5C147 167 138.833 169.833 136.5 171.5C132.667 174 121 180 121 176C121 173.5 130 168.5 134.5 165.5C138.1 163.1 138 162.5 136.5 161C133.333 162 121.081 168.662 119.5 165.5C118.5 163.5 118.5 160.5 136.5 152.5C150.9 146.1 145.5 143.5 141 143C125.8 139.4 131.667 135.833 136.5 134.5C142 133.5 154.4 131.6 160 132Z" fill="#E34E49" stroke="white"/>
<path d="M188.552 176.657C190.064 182.055 217.673 202.853 223.236 206.199L228.24 209.741L210 241L150.157 187.973C145.962 184.5 135.888 179.468 138.919 176.026C139.996 174.802 143.767 177.329 145.6 178.981C151.188 182.848 149.089 178.643 147.785 177.158C143.56 174.049 135.532 167.154 137.22 164.447C138.908 161.739 140.65 164.834 148.321 170.619C154.913 174.664 149.842 167.793 147.675 166.082C144.314 163.2 135.432 153.957 138.787 152.783C140.883 152.05 148.046 159.071 152.046 162.435C155.247 165.126 155.717 164.856 156.479 163.001C154.596 160.308 144.966 150.707 147.096 148.288C148.444 146.758 150.959 145.878 163.607 160.507C173.725 172.211 174.124 166.355 173.058 161.964C171.061 146.572 175.988 151.059 178.701 155.226C181.354 160.12 187.039 171.258 188.552 176.657Z" fill="#E34E49" stroke="white"/>
<path d="M161.996 211.381C159.095 217.841 162.572 234.584 164.673 242.149L166.151 249.475L126.592 266.101L120.874 192.933C120.023 186.299 115.422 173.609 120.641 172.565C122.496 172.193 123.72 177.574 123.987 180.606C125.707 188.7 127.191 182.959 127.24 180.499C126.083 174.198 124.649 161.256 128.167 159.898C131.685 158.541 130.758 162.918 132.75 174.497C135.178 183.538 136.219 172.895 135.716 169.548C135.111 164.134 134.775 148.232 138.51 149.662C140.845 150.556 141.452 162.956 142.222 169.335C142.838 174.438 143.444 174.535 145.522 173.302C146.017 169.211 145.326 152.382 148.993 151.648C151.312 151.184 154.114 152.256 153.46 176.341C152.936 195.609 157.802 190.171 160.3 185.044C170.524 168.408 171.207 176.601 170.27 182.777C168.721 189.62 164.898 204.92 161.996 211.381Z" fill="#E34E49" stroke="white"/>
<path d="M113.388 200.222C106.31 200.467 92.8165 210.972 86.9543 216.193L81.0314 220.751L48.6626 192.58L111.808 155.179C117.388 151.489 126.748 141.764 129.986 145.987C131.138 147.488 126.848 150.959 124.245 152.536C117.739 157.649 123.546 156.449 125.776 155.409C130.921 151.592 141.904 144.596 144.674 147.155C147.443 149.714 143.106 150.813 133.593 157.707C126.549 163.874 136.56 160.114 139.342 158.186C143.935 155.256 158.058 147.941 158.422 151.924C158.649 154.414 147.788 160.427 142.403 163.931C138.095 166.735 138.275 167.321 140.298 168.642C144.188 167.283 158.988 159.241 161.263 162.208C162.703 164.085 162.976 167.072 141.071 177.107C123.547 185.135 130.574 187.104 136.277 187.085C155.717 188.924 148.665 193.149 142.709 195.032C135.884 196.66 120.466 199.977 113.388 200.222Z" fill="#E34E49" stroke="white"/>
<path d="M99.1905 146.668C96.5148 140.111 81.9941 131.079 75.0683 127.382L68.7445 123.399L83.9947 83.2893L140.913 129.62C146.303 133.581 158.664 139.003 155.82 143.502C154.809 145.101 150.07 142.276 147.69 140.378C140.644 136.04 143.777 141.074 145.524 142.807C150.884 146.316 161.243 154.205 159.799 157.688C158.355 161.171 155.825 157.481 146.068 150.936C137.848 146.458 144.835 154.552 147.606 156.497C151.942 159.794 163.688 170.519 160.075 172.237C157.818 173.311 148.422 165.197 143.272 161.354C139.152 158.281 138.665 158.652 138.124 161.007C140.744 164.188 153.405 175.296 151.407 178.457C150.143 180.457 147.434 181.745 130.448 164.658C116.859 150.988 117.439 158.262 119.428 163.607C124.42 182.485 118.018 177.327 114.193 172.389C110.307 166.548 101.866 153.225 99.1905 146.668Z" fill="#E34E49" stroke="white"/>
<path d="M124 239C116.4 247 120.833 253.333 124 255.5L110.5 309H176L168.5 255.5C172.1 249.1 167 241.833 164 239H124Z" fill="#FFD286"/>
<path d="M96.5 219L67 179.5L-8.5 226.5L-12.5 308L96.5 219Z" fill="#F5F5F5"/>
<path d="M79 133C69.4203 129.442 66.4737 125.681 66.1553 122.966L-16 80L-18 -0.5L89.5389 87.3156C95.3381 85.389 102.626 93.4388 106 98.5L79 133Z" fill="#82B479"/>
<path d="M208 151.5C205.2 142.7 188.167 123.5 180 115L327 8.5L324.5 83.5L208 151.5Z" fill="#04A1D9"/>
<path d="M221.776 197.162C233.713 201.034 240.562 209.273 242.494 212.909C247.823 202.33 292.469 243.727 313 252.387L329.621 307.605L266.5 304.5C236.688 287.201 215.111 258.187 215.339 252.387C215.339 252.387 209.473 252.687 200.884 244.122C192.294 235.557 193.841 231.639 193.841 231.639L221.776 197.162Z" fill="#02528C"/>
</g>
<defs>
<clipPath id="clip0">
<rect width="300" height="300" rx="20" fill="white"/>
</clipPath>
</defs>
</svg>
