<svg width="300" height="300" viewBox="0 0 300 300" fill="none" xmlns="http://www.w3.org/2000/svg">
<g clip-path="url(#clip0)">
<rect width="300" height="300" rx="20" fill="#272D53"/>
<path d="M73.5655 228.168C70.9422 225.936 63.7865 224.767 59.3085 225.768L55.1138 226.37L54.1206 212.142C62.0177 209.538 83.3812 216.657 97.7702 216.31C102.825 215.997 120.481 220.462 119.688 225.842C119.502 227.108 106.676 224.167 100.705 223.249C94.7334 222.331 85.5762 224.447 84.831 226.747C85.0583 227.801 85.8981 230.783 87.4392 234.273C93.4906 241.829 89.0479 241.865 86.0702 240.939C82.9016 239.577 76.1888 230.399 73.5655 228.168Z" fill="#E34E49"/>
<path d="M53.8345 208.043L55.1138 226.37L59.3085 225.768C63.7865 224.767 70.9422 225.936 73.5655 228.168C76.1888 230.399 82.9016 239.577 86.0702 240.939C89.0479 241.865 93.4906 241.829 87.4392 234.273C85.8981 230.783 85.0583 227.801 84.831 226.747C85.5762 224.447 94.7334 222.331 100.705 223.249C106.676 224.167 119.502 227.108 119.688 225.842C120.481 220.462 102.825 215.997 97.7702 216.31C82.7583 216.672 60.155 208.908 53.1725 212.536" stroke="white"/>
<path d="M-62.4021 169.917L64.9086 211.476L59.4573 231.691L-19.7885 221.164C-109.967 205.521 -162.738 174.183 -177.851 160.47C-201.924 141.931 -244.607 99.8206 -222.761 79.6893C-195.454 54.5251 -151.024 99.0342 -131.654 122.329C-116.158 140.964 -79.0294 161.819 -62.4021 169.917Z" fill="#02528C"/>
<path d="M198.726 33.9765L192.98 26.4927L170.424 60.8052L193.801 59.958C194.531 57.6988 195.388 52.1353 192.98 47.9557C190.573 43.7761 197.449 35.2473 198.726 33.9765Z" fill="#E34E49" stroke="white"/>
<path d="M166.716 51.9094C165.402 43.4372 184.331 27.8577 189.301 21.6918L194.5 28.4696C193.041 30.164 185.429 39.5117 184.772 43.0136C183.952 47.3909 177.249 50.0737 176.154 54.0275C175.06 57.9812 175.881 65.8886 170.819 68.5715C165.758 71.2543 168.357 62.4997 166.716 51.9094Z" fill="#E34E49" stroke="white"/>
<path d="M111.615 187.594C104.166 190.379 107.466 200.995 110.048 205.956C115.271 218.254 124.075 218.84 127.823 217.596C127.476 216.181 126.166 212.785 123.703 210.522C120.624 207.694 117.936 209.493 117.338 207.195C116.74 204.896 117.938 205.297 120.745 205.636C122.99 205.907 128.42 211.8 130.854 214.713C137.412 214.748 140.128 209.121 140.665 206.303C136.038 206.194 133.776 202.4 133.224 200.517L144.997 202.656C147.86 200.975 148.862 196.854 149.006 195.003C149.49 186.772 142.685 185.395 139.222 185.736L127.562 194.127C127.683 192.069 128.976 187.645 133.18 186.413C137.384 185.181 134.967 184.113 133.233 183.733C130.495 182.338 123.124 184.149 119.78 185.229L117.98 190.922C117.346 193.208 115.82 197.754 114.793 197.65C113.766 197.547 113.91 196.256 114.11 195.623L117.196 185.863L111.615 187.594Z" fill="#82B479"/>
<path d="M92.8316 151.274C80.759 160.134 92.9939 176.11 100.62 182.99C117.366 200.711 133.885 196.75 140.051 192.555C138.591 190.374 134.21 185.406 128.368 182.99C121.066 179.969 117.172 184.5 114.738 180.976C112.304 177.452 114.738 177.452 120.092 176.445C124.376 175.64 137.779 182.487 143.945 186.011C156.018 182.386 157.738 171.411 157.089 166.377C148.521 168.793 142.161 163.692 140.051 160.839L162.931 157.819C167.214 153.388 166.663 145.904 165.851 142.716C161.957 128.62 148.651 130.13 142.485 132.647L125.934 153.288C124.96 149.764 124.766 141.608 131.776 137.178C138.785 132.748 133.723 132.311 130.315 132.647C124.474 131.842 111.979 139.024 106.462 142.716V153.288C106.624 157.483 106.462 165.974 104.515 166.377C102.568 166.78 102.081 164.531 102.081 163.356V145.233L92.8316 151.274Z" fill="#A8D2A0"/>
<path d="M58.2019 171.161C60.1599 165.572 54.7754 158.853 51.8384 156.192C59.6704 155.393 68.4814 160.849 71.9078 163.676C71.5815 168.001 71.0268 177.149 71.4184 179.144C71.9078 181.639 74.3553 181.639 74.8448 180.142C75.6378 177.718 76.3133 168.832 75.8238 164.175C78.2713 166.337 83.9495 171.959 87.0823 177.149C90.2151 182.338 81.5347 191.951 76.8028 196.11C74.1922 198.272 67.7961 202.896 63.0969 204.093C57.2229 205.59 49.3909 203.594 48.4119 199.602C47.4329 195.611 61.1389 194.114 64.5654 193.615C67.9919 193.116 64.5654 188.126 60.1599 189.124C55.7544 190.122 52.8174 195.611 43.0274 194.613C35.1954 193.814 32.9111 185.631 32.7479 181.639C33.5311 182.438 39.6009 181.307 42.5379 180.641C46.4539 178.645 46.9434 178.812 45.9644 177.149C32.2584 178.645 22.4684 170.662 28.8319 160.183C31.7696 155.346 34.2164 155.194 39.6009 154.695C43.9085 154.295 53.7964 165.506 58.2019 171.161Z" fill="#A8D2A0"/>
<path d="M120.531 201.043C113.729 203.499 97.7541 210.375 97.7541 226.583M122.429 165.68C113.255 169.282 92.5345 187.782 92.5345 225.6M64.064 180.906C71.1816 187.291 85.6067 204.972 86.3659 224.618" stroke="#38762D" stroke-width="2" stroke-linecap="round" stroke-linejoin="round"/>
<path d="M99.5903 259.571C122.014 259.571 140.192 240.636 140.192 217.278H58.9888C58.9888 240.636 77.1667 259.571 99.5903 259.571Z" fill="#EE9949"/>
<path d="M168.737 145.749C163.264 146.162 159.761 138.546 158.694 134.686C160.47 132.081 166.496 134.212 169.287 135.603C171.384 138.813 174.21 145.337 168.737 145.749Z" fill="#FFD286"/>
<path d="M221.915 69.9013C223.126 65.0221 226.802 56.1727 231.824 59.8089C236.846 63.4451 241.37 77.9776 243.004 84.7894" stroke="#EF444F" stroke-width="5"/>
<path d="M170.387 145.011C169.125 135.619 161.768 133.971 158.247 134.321C160.711 130.566 164.461 130.93 167.258 132.146L178.427 121.894L198.039 122.735C199.333 123.099 202.102 122.84 202.826 118.895C203.715 117.932 206.723 117.49 211.646 123.434C216.569 129.377 216.018 131.095 215.127 131.211C213.262 129.782 207.739 127.219 200.57 128.391L182.559 127.966L171.713 137.044C174.14 142.429 172.026 144.595 170.387 145.011Z" fill="#EF444F"/>
<path d="M218.293 149.029L187.083 103.312C213.427 88.3528 219.002 72.2421 218.497 66.0565L263.603 92.2598C268.099 127.587 235.269 144.825 218.293 149.029Z" fill="#FFD286" stroke="#FFD286" stroke-width="5"/>
<path d="M199.029 74.3926C190.935 84.0155 177.381 96.8105 181.952 100.705C186.861 109.144 196.864 98.8397 202.145 93.3644C208.898 85.9105 221.641 69.9297 218.589 65.6383C214.774 60.274 210.476 60.7833 199.029 74.3926Z" fill="#EF444F"/>
<path d="M227.261 82.7405C217.018 72.5212 193.189 53.2963 179.812 58.1514C166.436 63.0066 179.219 80.9523 187.283 89.3183" stroke="#FFD286" stroke-width="5"/>
<path d="M197.341 57.0414C195.689 55.4561 194.781 56.879 194.534 57.7887C194.418 58.0623 194.282 59.0373 194.663 60.7482C195.14 62.8869 193.644 66.8565 193.604 67.492C193.553 68.3004 193.58 69.8334 196.581 67.6472C199.582 65.4609 199.406 59.0231 197.341 57.0414Z" fill="#E34E49" stroke="white"/>
<path d="M193.541 54.7643C191.516 52.7804 190.372 54.5943 190.053 55.7492C189.906 56.0972 189.723 57.3333 190.172 59.4937C190.733 62.1944 188.167 67.0239 188.396 67.775C188.598 68.4389 188.704 71.0094 192.453 68.2002C196.201 65.391 196.072 57.2441 193.541 54.7643Z" fill="#E34E49" stroke="white"/>
<path d="M189.687 55.8658C188.028 53.5678 186.593 55.1618 186.084 56.246C185.879 56.564 185.49 57.7513 185.567 59.9566C185.663 62.7133 182.072 67.7222 182.733 68.1465C183.393 68.5709 182.17 71.0574 186.34 68.9235C190.51 66.7896 191.762 58.7384 189.687 55.8658Z" fill="#E34E49" stroke="white"/>
<path d="M185.41 56.8198C183.75 54.5217 182.316 56.1157 181.806 57.2C181.602 57.518 181.213 58.7053 181.289 60.9106L177.588 60.5669C175.357 60.1746 171.318 60.87 173.014 66.7899C174.711 72.7097 179.753 71.3148 182.063 69.8774C186.233 67.7435 187.485 59.6923 185.41 56.8198Z" fill="#E34E49" stroke="white"/>
<path d="M306.154 -47.6362L196.394 40.0012L182.121 23.8876L237.208 -39.2853C303.056 -109.114 360.724 -137.51 381.327 -142.979C411.294 -153.548 472.399 -167.094 477.082 -136.735C482.935 -98.7855 418.747 -85.0635 387.408 -81.2676C362.337 -78.231 322.792 -57.5814 306.154 -47.6362Z" fill="#04A1D9"/>
<ellipse cx="158.239" cy="141.41" rx="1.2688" ry="2.96053" transform="rotate(45.0741 158.239 141.41)" fill="#E6F1FF"/>
<ellipse cx="159.157" cy="151.268" rx="1.2688" ry="2.96053" transform="rotate(45.0741 159.157 151.268)" fill="#E6F1FF"/>
<ellipse cx="150.546" cy="150.763" rx="1.2688" ry="2.96053" transform="rotate(45.0741 150.546 150.763)" fill="#E6F1FF"/>
<ellipse cx="165.346" cy="143.296" rx="1.2688" ry="2.96053" transform="rotate(36.8919 165.346 143.296)" fill="#E6F1FF"/>
<ellipse cx="152.322" cy="160.226" rx="1.2688" ry="2.96053" transform="rotate(30.2994 152.322 160.226)" fill="#E6F1FF"/>
<ellipse cx="140.787" cy="161.325" rx="1.2688" ry="2.96053" transform="rotate(23.5144 140.787 161.325)" fill="#E6F1FF"/>
<ellipse cx="147.717" cy="170.043" rx="1.2688" ry="2.96053" transform="rotate(22.6811 147.717 170.043)" fill="#E6F1FF"/>
<path d="M77.3065 235.69C73.4048 237.263 64.7643 235.563 60.0617 232.391L55.5209 229.826L48.5717 246.778C56.0599 254.196 77.7358 264.29 96.7734 260.5C107.386 258.387 126 253.584 123 250.5C121.081 248.527 101.624 254.662 93 250.5C82.0554 245.218 85.408 239.927 88.5 238.5C96.7734 234.683 94.7748 231.672 91 231.5C86.83 231.776 81.2082 234.117 77.3065 235.69Z" fill="#E34E49"/>
<path d="M46.6012 251.584L55.5209 229.826L60.0617 232.391C64.7643 235.563 73.4048 237.263 77.3065 235.69C81.2082 234.117 86.83 231.776 91 231.5C94.7748 231.672 96.7734 234.683 88.5 238.5C85.408 239.927 82.0554 245.218 93 250.5C101.624 254.662 121.081 248.527 123 250.5C126 253.584 107.386 258.387 96.7734 260.5C76.906 264.456 54.1651 253.29 47.6747 245.824" stroke="white" stroke-linecap="round" stroke-linejoin="round"/>
<path d="M-92.7033 206.477L62.5664 228.136L60.9539 254.524L-32.1824 260.094C-139.007 261.882 -206.598 235.38 -227.04 221.906C-258.845 204.547 -317.353 162.293 -296.952 132.153C-271.451 94.4784 -210.393 139.3 -182.883 163.671C-160.876 183.168 -113.594 200.332 -92.7033 206.477Z" fill="#04A1D9"/>
<ellipse cx="139.029" cy="170.509" rx="1.2688" ry="2.96053" transform="rotate(37.8714 139.029 170.509)" fill="#E6F1FF"/>
<ellipse cx="144.167" cy="181.622" rx="1.2688" ry="2.96053" transform="rotate(22.6811 144.167 181.622)" fill="#E6F1FF"/>
<ellipse cx="119.903" cy="195.777" rx="1.2688" ry="2.96053" transform="rotate(22.6811 119.903 195.777)" fill="#E6F1FF"/>
<ellipse cx="120.409" cy="187.214" rx="1.2688" ry="2.96053" transform="rotate(37.8714 120.409 187.214)" fill="#E6F1FF"/>
<ellipse cx="128.361" cy="192.394" rx="1.2688" ry="2.96053" transform="rotate(22.6811 128.361 192.394)" fill="#E6F1FF"/>
<ellipse cx="131.637" cy="180.911" rx="1.2688" ry="2.96053" transform="rotate(30.8657 131.637 180.911)" fill="#E6F1FF"/>
<ellipse cx="136.575" cy="189.785" rx="1.2688" ry="2.96053" transform="rotate(18.3367 136.575 189.785)" fill="#E6F1FF"/>
<ellipse cx="127.325" cy="172.674" rx="1.2688" ry="2.96053" transform="rotate(43.9465 127.325 172.674)" fill="#E6F1FF"/>
</g>
<defs>
<clipPath id="clip0">
<rect width="300" height="300" rx="20" fill="white"/>
</clipPath>
</defs>
</svg>
